<?xml version="1.0" standalone="no"?>
<!DOCTYPE svg PUBLIC "-//W3C//DTD SVG 1.1//EN" "http://www.w3.org/Graphics/SVG/1.1/DTD/svg11.dtd" >
<svg xmlns="http://www.w3.org/2000/svg" xmlns:xlink="http://www.w3.org/1999/xlink" version="1.1">
<metadata>
Created by FontForge 20200427 at Sun Oct  6 10:53:21 2019
 By www
Copyright (c) 2019 by GOICHA. All rights reserved.
</metadata>
<defs>
<font id="Montblanc-Regular" horiz-adv-x="665" >
  <font-face 
    font-family="Montblanc"
    font-weight="400"
    font-stretch="normal"
    units-per-em="1000"
    panose-1="2 0 5 3 0 0 0 0 0 0"
    ascent="800"
    descent="-200"
    x-height="585"
    cap-height="900"
    bbox="-125 -317 1295 1188"
    underline-thickness="50"
    underline-position="-100"
    unicode-range="U+0020-FB04"
  />
<missing-glyph horiz-adv-x="500" 
d="M450 0h-400v533h400v-533zM100 483v-433h300v433h-300z" />
    <glyph glyph-name="quotedblleft" unicode="&#x2018;&#x2018;" horiz-adv-x="644" 
d="M186 608h-84l126 292h63zM343 608l126 292h63l-104 -292h-85z" />
    <glyph glyph-name="quotedblright" unicode="&#x2019;&#x2019;" horiz-adv-x="644" 
d="M175 608h-62l104 292h85zM354 608l104 292h85l-126 -292h-63z" />
    <glyph glyph-name="guillemotleft" unicode="&#x3c;&#x3c;" horiz-adv-x="658" 
d="M62 292l178 293h89l-177 -293l177 -292h-89zM329 292l178 293h89l-177 -293l177 -292h-89z" />
    <glyph glyph-name="guillemotright" unicode="&#x3e;&#x3e;" horiz-adv-x="658" 
d="M240 292l-178 293h90l177 -293l-177 -292h-90zM507 292l-178 293h90l177 -293l-177 -292h-90z" />
    <glyph glyph-name="endash" unicode="&#x2d;&#x2d;" horiz-adv-x="658" 
d="M617 264h-575v57h575v-57z" />
    <glyph glyph-name="emdash" unicode="&#x2013;&#x2d;" horiz-adv-x="1148" 
d="M1106 264h-1064v57h1064v-57z" />
    <glyph glyph-name="fi" unicode="fi" horiz-adv-x="658" 
d="M439 876.5q-31 26.5 -73 26.5q-27 0 -51 -12t-41 -33q-35 -43 -35 -114v-159h335v-585h-81v528h-254v-528h-82v528h-111v57h111v159q0 45 15 85.5t44 70.5q29 29 68 44.5t82 15.5t82 -15.5t68 -44.5q24 -24 39 -59l-72 -31q-13 40 -44 66.5z" />
    <glyph glyph-name="fl" unicode="fl" horiz-adv-x="693" 
d="M257 879.5q-18 -23.5 -18 -55.5v-239h120v-57h-120v-528h-81v528h-112v57h112v239q0 28 10.5 54t30.5 44q41 38 105 38t105 -38q20 -18 30.5 -44t10.5 -54h-81q0 32 -18 55.5t-47 23.5t-47 -23.5zM609 0h-82v950h82v-950z" />
    <glyph glyph-name="exclamdown" unicode="&#x21;&#x2018;" horiz-adv-x="390" 
d="M156.5 598q15.5 15 38.5 15t38.5 -15t15.5 -38t-15.5 -38.5t-38.5 -15.5t-38.5 15.5t-15.5 38.5t15.5 38zM236 -300h-82v671h82v-671z" />
    <glyph glyph-name="questiondown" unicode="&#x3f;&#x2018;" horiz-adv-x="602" 
d="M303.5 598q15.5 15 38.5 15t38.5 -15t15.5 -38t-15.5 -38.5t-38.5 -15.5t-38.5 15.5t-15.5 38.5t15.5 38zM413 -236q34 17 57 46l50 -52q-34 -34 -80.5 -51t-97.5 -17q-52 0 -99 18.5t-82 54.5t-53 84.5t-18 101.5t18 102t53 85q56 57 141 70v165h81v-219h-41
q-35 0 -67.5 -15t-54.5 -42q-48 -56 -48 -146q0 -89 48 -145q22 -27 54.5 -42t67.5 -15q37 0 71 17z" />
    <glyph glyph-name=".notdef" horiz-adv-x="500" 
d="M450 0h-400v533h400v-533zM100 483v-433h300v433h-300z" />
    <glyph glyph-name="space" unicode=" " horiz-adv-x="419" 
 />
    <glyph glyph-name="grave" unicode="`" horiz-adv-x="280" 
d="M172 720l-149 180h102l122 -180h-75z" />
    <glyph glyph-name="acute" unicode="&#xb4;" horiz-adv-x="280" 
d="M32 720l122 180h102l-149 -180h-75z" />
    <glyph glyph-name="circumflex" unicode="&#x2c6;" horiz-adv-x="294" 
d="M95 900h103l127 -180h-77l-101 119l-102 -119h-77z" />
    <glyph glyph-name="tilde" unicode="&#x2dc;" horiz-adv-x="294" 
d="M35 777.5q-19 -22.5 -19 -53.5h-65q0 26 9.5 50t27.5 41q38 35 96 35q17 0 30.5 -7.5t32.5 -22.5q18 -15 32 -23t30 -8q30 0 49 21.5t19 53.5h65q0 -26 -9.5 -50t-27.5 -41q-38 -35 -96 -35q-16 0 -29 7.5t-33 23.5q-18 15 -32 23t-31 8q-30 0 -49 -22.5z" />
    <glyph glyph-name="dieresis" unicode="&#xa8;" horiz-adv-x="294" 
d="M-19 839q16 16 40 16t40 -16t16 -40t-16 -40t-40 -16t-40 16t-16 40t16 40zM232 839q16 16 40 16t40 -16t16 -40t-16 -40t-40 -16t-40 16t-16 40t16 40z" />
    <glyph glyph-name="hungarumlaut" unicode="&#x2dd;" horiz-adv-x="294" 
d="M58 720h-74l113 180h99zM193 720l113 180h99l-138 -180h-74z" />
    <glyph glyph-name="ring" unicode="&#x2da;" horiz-adv-x="294" 
d="M234 888q34 -31 34 -78t-34 -78q-35 -31 -87 -31q-53 0 -88 31q-34 31 -34 78t34 78q35 31 88 31q52 0 87 -31zM194.5 860.5q-18.5 20.5 -47.5 20.5t-48 -20.5t-19 -50.5t19 -50.5t48 -20.5t47.5 20.5t18.5 50.5t-18.5 50.5z" />
    <glyph glyph-name="caron" unicode="&#x2c7;" horiz-adv-x="294" 
d="M95 720l-127 180h77l102 -119l101 119h77l-127 -180h-103z" />
    <glyph glyph-name="breve" unicode="&#x2d8;" horiz-adv-x="294" 
d="M236 808.5q41 18.5 41 55.5h65q0 -27 -15 -50t-40 -39q-54 -35 -140 -35q-87 0 -141 35q-25 16 -40 39t-15 50h65q0 -37 41 -55.5t90 -18.5q48 0 89 18.5z" />
    <glyph glyph-name="macron" unicode="&#xaf;" horiz-adv-x="294" 
d="M321 762h-349v51h349v-51z" />
    <glyph glyph-name="dotaccent" unicode="&#x2d9;" horiz-adv-x="252" 
d="M86.5 839q15.5 16 39.5 16t40 -16t16 -40t-16 -40t-40 -16t-39.5 16t-15.5 40t15.5 40z" />
    <glyph glyph-name="cedilla" unicode="&#xb8;" horiz-adv-x="280" 
d="M218 -133.5q-34 20.5 -78 20.5h-61l30 136h61l-20 -90q42 -1 80 -15.5t62.5 -42.5t24.5 -67q0 -27 -13 -50.5t-36 -39.5q-50 -35 -128 -35q-50 0 -94.5 17t-65.5 49l52 35q11 -27 41.5 -41.5t66.5 -14.5q43 0 77.5 21t34.5 59t-34 58.5z" />
    <glyph glyph-name="ogonek" unicode="&#x2db;" horiz-adv-x="280" 
d="M212.5 -307.5q-34.5 -9.5 -72.5 -9.5q-78 0 -128 35q-23 16 -36.5 40t-13.5 50q0 31 18 50t57 44q38 23 56 42l96 102l11 -46l-95 -101q-13 -14 -32 -27q-24 -19 -35 -32t-11 -32q0 -38 34.5 -59t78.5 -21q30 0 57 10t41 29l35 -45q-26 -20 -60.5 -29.5z" />
    <glyph glyph-name="quotesinglbase" unicode="&#x201a;" horiz-adv-x="357" 
d="M86 -180l105 292h85l-127 -292h-63z" />
    <glyph glyph-name="guilsinglleft" unicode="&#x2039;" horiz-adv-x="385" 
d="M62 292l172 293h89l-172 -293l172 -292h-89z" />
    <glyph glyph-name="guilsinglright" unicode="&#x203a;" horiz-adv-x="385" 
d="M234 292l-172 293h89l172 -293l-172 -292h-89z" />
    <glyph glyph-name="quotedblbase" unicode="&#x201e;" horiz-adv-x="644" 
d="M175 -180h-62l104 292h85zM354 -180l104 292h85l-126 -292h-63z" />
    <glyph glyph-name="cwm" horiz-adv-x="0" 
d="M48.5 -20q-8.5 8 -8.5 20v900q0 12 8.5 20t20.5 8t20 -8t8 -20v-900q0 -12 -8 -20t-20 -8t-20.5 8z" />
    <glyph glyph-name="perthousandzero" horiz-adv-x="483" 
d="M321 418.5q38 -15.5 65 -45.5q28 -30 42 -70.5t14 -85.5t-14 -85.5t-42 -70.5q-27 -30 -65 -45.5t-79 -15.5t-79 15.5t-65 45.5q-28 30 -42 70.5t-14 85.5t14 85.5t42 70.5q27 30 65 45.5t79 15.5t79 -15.5zM306.5 80.5q26.5 23.5 40 60t13.5 76.5q0 70 -33 115
q-15 21 -37.5 32.5t-47.5 11.5t-47.5 -11.5t-37.5 -32.5q-33 -45 -33 -115q0 -40 13.5 -76.5t40 -60t64.5 -23.5t64.5 23.5z" />
    <glyph glyph-name="dotlessi" unicode="&#x131;" horiz-adv-x="266" 
d="M173 0h-81v585h81v-585z" />
    <glyph glyph-name="uni0237" unicode="&#x237;" horiz-adv-x="294" 
d="M100 -215q27 38 27 89v711h82v-711q0 -38 -13 -73t-38 -60t-59 -38t-72 -13q-47 0 -88 21t-64 57l64 41q12 -27 35.5 -44.5t52.5 -17.5q46 0 73 38z" />
    <glyph glyph-name="ffi" unicode="&#xfb03;" horiz-adv-x="973" 
d="M757 876q-30 27 -70 27q-25 0 -48 -12t-39 -33q-34 -45 -34 -114v-159h324v-585h-82v528h-242v-528h-81v528h-247v-528h-81v528h-111v57h111v207q0 34 10.5 65.5t31.5 55.5q20 23 48.5 35t59.5 12q30 0 56.5 -10.5t46.5 -31.5l-51 -51q-9 16 -22.5 26t-29.5 10
q-34 0 -51.5 -34.5t-17.5 -76.5v-207h247v159q0 44 14.5 84.5t42.5 71.5q27 29 65 44.5t80 15.5t80.5 -15.5t65.5 -44.5q23 -25 38 -59l-72 -31q-12 39 -42 66z" />
    <glyph glyph-name="ffl" unicode="&#xfb04;" horiz-adv-x="973" 
d="M574.5 879.5q-17.5 -23.5 -17.5 -55.5v-239h124v-57h-124v-528h-81v528h-238v-528h-81v528h-111v57h111v239q0 29 10 54.5t30 43.5q41 38 105 38t105 -38q20 -18 30.5 -44t10.5 -54h-82q0 32 -17.5 55.5t-46.5 23.5t-46.5 -23.5t-17.5 -55.5v-239h238v239q0 28 10.5 54
t30.5 44q41 38 104 38q64 0 105 -38q20 -18 30.5 -44t10.5 -54h-82q0 32 -17.5 55.5t-46.5 23.5t-46.5 -23.5zM890 0h-82v950h82v-950z" />
    <glyph glyph-name="uni2420" unicode="&#x2420;" horiz-adv-x="560" 
d="M451 -92v92h81v-148h-504v148h82v-92h341z" />
    <glyph glyph-name="exclam" unicode="!" horiz-adv-x="390" 
d="M236 243h-82v657h82v-657zM156.5 92.5q15.5 15.5 38.5 15.5t38.5 -15.5t15.5 -38.5t-15.5 -38.5t-38.5 -15.5t-38.5 15.5t-15.5 38.5t15.5 38.5z" />
    <glyph glyph-name="quotedbl" unicode="&#x22;" horiz-adv-x="413" 
d="M42 608v292h82v-292h-82zM290 900h82v-292h-82v292z" />
    <glyph glyph-name="numbersign" unicode="#" horiz-adv-x="756" 
d="M225 556h-169v57h179l50 287h82l-50 -287h181l50 287h82l-51 -287h150v-57h-160l-37 -212h169v-58h-179l-50 -286h-82l50 286h-181l-50 -286h-82l51 286h-150v58h160zM269 344h181l38 212h-181z" />
    <glyph glyph-name="dollar" unicode="$" horiz-adv-x="728" 
d="M200 102q32 -28 73.5 -41.5t87.5 -13.5q105 0 165 52q30 25 44.5 63t14.5 80q0 58 -33.5 104.5t-88.5 60.5l-191 34q-85 23 -140.5 84t-55.5 141q0 53 19 100t57 79q64 55 169 63v172h81v-172q101 -10 165 -66q36 -30 56 -73l-70 -35q-17 41 -45 67q-29 26 -67 39t-80 13
q-95 0 -149 -50q-27 -25 -40.5 -60.5t-13.5 -76.5q0 -59 36 -106t93 -62l191 -34q82 -22 135.5 -82.5t53.5 -139.5q0 -55 -20.5 -103.5t-60.5 -81.5q-69 -57 -184 -66v-171h-81v172q-109 10 -179 68q-44 36 -67 89l73 31q15 -46 52 -78z" />
    <glyph glyph-name="percent" unicode="%" horiz-adv-x="1148" 
d="M291 -45h-97l663 990h98zM377.5 884q36.5 -16 61.5 -45q27 -31 40.5 -71.5t13.5 -84.5t-13.5 -84.5t-40.5 -71.5q-25 -29 -61.5 -45t-75.5 -16t-75 16t-61 45q-27 31 -40.5 71.5t-13.5 84.5t13.5 84.5t40.5 71.5q25 29 61 45t75 16t75.5 -16zM382.5 794
q-28.5 49 -80.5 49t-80 -49t-28 -111t28 -110.5t80 -48.5t80.5 48.5t28.5 110.5t-28.5 111zM921.5 418q36.5 -16 61.5 -45q53 -62 53 -156t-53 -156q-25 -29 -61.5 -45t-75.5 -16t-75.5 16t-61.5 45q-53 62 -53 156t53 156q25 29 61.5 45t75.5 16t75.5 -16zM926.5 327.5
q-28.5 48.5 -80.5 48.5t-80 -48.5t-28 -110.5t28 -111t80 -49t80.5 49t28.5 111t-28.5 110.5z" />
    <glyph glyph-name="ampersand" unicode="&#x26;" horiz-adv-x="868" 
d="M549 801q-29 26 -68 39t-81 13t-80.5 -13t-67.5 -39q-28 -25 -43 -60.5t-15 -74.5t15 -74.5t43 -60.5q29 -26 67.5 -39.5t80.5 -13.5h419v-56h-131v-422h-288q-126 0 -207 67q-38 32 -59.5 77t-21.5 95t21.5 95.5t59.5 77.5q34 28 81 46q-42 15 -81 44q-38 30 -59.5 73.5
t-21.5 90.5q0 51 21 97t60 79q79 68 207 68t207 -68q31 -27 51 -62l-67 -38q-15 34 -42 59zM252 370q-28 -25 -43 -59t-15 -72t15 -72t43 -59q58 -51 148 -51h206v365h-206q-89 0 -148 -52z" />
    <glyph glyph-name="quoteright" unicode="&#x2019;" horiz-adv-x="357" 
d="M86 608l105 292h85l-127 -292h-63z" />
    <glyph glyph-name="parenleft" unicode="(" horiz-adv-x="385" 
d="M187 -128q-61 104 -93 220.5t-32 237.5t32 237.5t93 220.5q67 114 135 165l34 -46q-33 -25 -60 -65t-54 -93q-98 -193 -98 -419t98 -419q27 -53 54 -93t60 -65l-34 -46q-68 51 -135 165z" />
    <glyph glyph-name="parenright" unicode=")" horiz-adv-x="385" 
d="M89 -182q27 40 54 93q99 195 99 419t-99 419q-27 53 -54 93t-60 65l34 46q70 -52 136 -165q61 -104 92.5 -220.5t31.5 -237.5t-31.5 -237.5t-92.5 -220.5q-66 -113 -136 -165l-34 46q33 25 60 65z" />
    <glyph glyph-name="asterisk" unicode="*" horiz-adv-x="651" 
d="M524 788v-90l-138 -63l138 -185h-96l-103 138l-102 -138h-97l138 185l-138 63v90l159 -72v184h81v-184z" />
    <glyph glyph-name="plus" unicode="+" horiz-adv-x="686" 
d="M631 321v-57h-247v-264h-81v264h-247v57h247v264h81v-264h247z" />
    <glyph glyph-name="comma" unicode="," horiz-adv-x="329" 
d="M14 -176l130 293h93l-154 -293h-69z" />
    <glyph glyph-name="hyphen" unicode="-" horiz-adv-x="406" 
d="M349 264h-293v57h293v-57z" />
    <glyph glyph-name="period" unicode="." horiz-adv-x="306" 
d="M114.5 92.5q15.5 15.5 38.5 15.5t38.5 -15.5t15.5 -38.5t-15.5 -38.5t-38.5 -15.5t-38.5 15.5t-15.5 38.5t15.5 38.5z" />
    <glyph glyph-name="slash" unicode="/" horiz-adv-x="525" 
d="M115 -45h-87l381 990h87z" />
    <glyph glyph-name="zero" unicode="0" horiz-adv-x="728" 
d="M489.5 881q58.5 -29 92.5 -83q43 -69 57 -153t14 -195t-14 -195t-57 -153q-34 -54 -92.5 -83t-125.5 -29t-125 29t-92 83q-43 69 -57 153t-14 195t14 195t57 153q34 54 92 83t125 29t125.5 -29zM273 826.5q-42 -26.5 -65 -71.5q-32 -62 -41 -133t-9 -172t9 -172t41 -133
q23 -45 65 -71.5t91 -26.5t91.5 27t65.5 71q32 62 41 133t9 172t-9 172t-41 133q-23 44 -65.5 71t-91.5 27t-91 -26.5z" />
    <glyph glyph-name="one" unicode="1" horiz-adv-x="476" 
d="M56 765l249 135h9v-900h-82v771l-176 -95v89z" />
    <glyph glyph-name="two" unicode="2" 
d="M183 178l126 120q94 93 149 186.5t55 197.5q0 35 -14 67.5t-39 55.5q-27 24 -62 36t-73 12t-73 -12t-62 -36q-25 -24 -39 -56l-68 37q18 34 48 60q39 33 89 48.5t105 15.5t105 -15.5t89 -48.5q36 -31 55.5 -74t19.5 -90q0 -83 -34.5 -158.5t-87.5 -140t-131 -141.5
l-116 -111l-77 -74h446v-57h-538v57q62 61 127 121z" />
    <glyph glyph-name="three" unicode="3" 
d="M176 99q26 -26 61.5 -39t73.5 -13t73.5 13t61.5 39t39.5 61.5t13.5 73.5t-13.5 73.5t-39.5 61.5q-27 26 -62 39.5t-73 13.5h-59v56h59q38 0 73 13.5t62 39.5q26 26 39.5 61.5t13.5 73.5t-13.5 73.5t-39.5 61.5t-61.5 39t-73.5 13t-73.5 -13t-61.5 -39q-22 -22 -37 -57
l-69 36q19 37 47 62q37 35 87.5 51.5t106.5 16.5t106.5 -16.5t87.5 -51.5q36 -33 55.5 -79t19.5 -97q0 -47 -19.5 -90t-55.5 -74q-37 -31 -77 -45q45 -18 77 -47q36 -33 55.5 -79t19.5 -97t-19.5 -97t-55.5 -79q-37 -35 -87.5 -51.5t-106.5 -16.5t-106.5 16.5t-87.5 51.5
q-28 25 -47 62l69 36q15 -35 37 -57z" />
    <glyph glyph-name="four" unicode="4" horiz-adv-x="693" 
d="M439 242h-385v8l457 650h9v-602h118v-56h-118v-242h-81v242zM439 298v364l-256 -364h256z" />
    <glyph glyph-name="five" unicode="5" horiz-adv-x="672" 
d="M164 843v-376q29 47 79 74t107 27q56 0 106 -20.5t86 -59.5q38 -41 56.5 -95.5t18.5 -113.5t-20.5 -113.5t-60.5 -94.5q-39 -40 -93 -60.5t-114 -20.5t-114 20.5t-93 60.5q-13 13 -26 31l61 44q9 -16 24 -34q27 -31 66.5 -48t81.5 -17t81.5 17t66.5 48q29 34 43.5 77
t14.5 90q0 101 -52 167q-24 31 -59 48.5t-74 17.5q-65 0 -116.5 -39t-69.5 -101h-81v528h493v-57h-412z" />
    <glyph glyph-name="six" unicode="6" horiz-adv-x="686" 
d="M499 794q-29 29 -67.5 44t-81.5 15t-81 -15t-67 -44t-43.5 -69t-14.5 -83v-213q13 22 28 39q33 38 79.5 58t98.5 20q60 0 114 -19.5t94 -58.5q40 -38 60.5 -90.5t20.5 -109.5t-20.5 -109.5t-60.5 -90.5q-40 -39 -94 -58.5t-114 -19.5q-59 0 -113 19.5t-94 58.5
q-40 38 -60.5 90.5t-20.5 109.5v374q0 56 21 106.5t60 86.5q41 38 94.5 56.5t112.5 18.5t113 -18.5t95 -56.5q30 -28 49 -64l-68 -37q-14 34 -40 60zM432 63q39 16 67 46q29 31 43.5 72t14.5 87t-14.5 87t-43.5 72q-28 30 -67 46t-82 16t-81.5 -16t-66.5 -46
q-29 -31 -43.5 -72t-14.5 -87t14.5 -87t43.5 -72q28 -30 66.5 -46t81.5 -16t82 16z" />
    <glyph glyph-name="seven" unicode="7" 
d="M594 891l-359 -891h-88l340 843h-431v57h538v-9z" />
    <glyph glyph-name="eight" unicode="8" horiz-adv-x="700" 
d="M237.5 8q-53.5 18 -94.5 54q-39 34 -60 82.5t-21 101.5t21 101t60 82q40 35 93 54q-31 13 -59 38q-33 30 -50 70.5t-17 85.5q0 48 17 92t50 76q33 33 78 49t95 16t95.5 -16t78.5 -49q33 -32 50 -76t17 -92q0 -45 -17 -85.5t-50 -70.5q-28 -25 -59 -38q53 -19 93 -54
q39 -34 60 -82t21 -101t-21 -101.5t-60 -82.5q-41 -36 -95 -54t-113 -18t-112.5 18zM287.5 840.5q-29.5 -12.5 -51.5 -36.5q-22 -25 -33.5 -58t-11.5 -69t11.5 -69t33.5 -58q22 -24 51.5 -36.5t62.5 -12.5t63 12.5t52 36.5q22 25 33.5 58t11.5 69t-11.5 69t-33.5 58
q-22 24 -52 36.5t-63 12.5t-62.5 -12.5zM431 61q39 14 68 42q29 27 43.5 64.5t14.5 78.5t-14.5 78t-43.5 64q-29 28 -68 42t-81 14t-80.5 -14t-67.5 -42q-29 -27 -43.5 -64t-14.5 -78t14.5 -78.5t43.5 -64.5q29 -28 67.5 -42t80.5 -14t81 14z" />
    <glyph glyph-name="nine" unicode="9" horiz-adv-x="686" 
d="M187 106q29 -29 67.5 -44t81.5 -15t81.5 15t67.5 44t43.5 69t14.5 83v213q-13 -22 -28 -39q-33 -38 -80 -58t-99 -20q-59 0 -113 19.5t-94 58.5q-40 38 -60.5 90.5t-20.5 109.5t20.5 109.5t60.5 90.5q40 39 94 58.5t113 19.5q60 0 114 -19.5t94 -58.5q40 -38 60.5 -90.5
t20.5 -109.5v-374q0 -56 -21 -106.5t-60 -86.5q-41 -38 -95 -56.5t-113 -18.5t-112.5 18.5t-94.5 56.5q-32 30 -50 64l69 37q15 -36 39 -60zM254 837q-39 -16 -67 -46q-57 -61 -57 -159t57 -159q28 -30 67 -46t82 -16t82 16t67 46q29 31 43.5 72t14.5 87t-14.5 87t-43.5 72
q-28 30 -67 46t-82 16t-82 -16z" />
    <glyph glyph-name="colon" unicode=":" horiz-adv-x="306" 
d="M114.5 569.5q15.5 15.5 38.5 15.5t38.5 -15.5t15.5 -38.5t-15.5 -38.5t-38.5 -15.5t-38.5 15.5t-15.5 38.5t15.5 38.5zM114.5 92.5q15.5 15.5 38.5 15.5t38.5 -15.5t15.5 -38.5t-15.5 -38.5t-38.5 -15.5t-38.5 15.5t-15.5 38.5t15.5 38.5z" />
    <glyph glyph-name="semicolon" unicode=";" horiz-adv-x="336" 
d="M143.5 569.5q15.5 15.5 38.5 15.5t38.5 -15.5t15.5 -38.5t-15.5 -38.5t-38.5 -15.5t-38.5 15.5t-15.5 38.5t15.5 38.5zM6 -176l130 293h93l-154 -293h-69z" />
    <glyph glyph-name="less" unicode="&#x3c;" horiz-adv-x="686" 
d="M56 248v88l575 264v-88l-479 -220l479 -219v-89z" />
    <glyph glyph-name="equal" unicode="=" horiz-adv-x="686" 
d="M631 381h-575v57h575v-57zM631 147h-575v57h575v-57z" />
    <glyph glyph-name="greater" unicode="&#x3e;" horiz-adv-x="686" 
d="M631 336v-88l-575 -264v89l479 219l-479 220v88z" />
    <glyph glyph-name="question" unicode="?" horiz-adv-x="616" 
d="M361.5 492q32.5 14 55.5 39q24 26 36 61.5t12 73.5t-12 73.5t-36 61.5q-23 25 -55 38.5t-68 13.5t-68 -13.5t-55 -38.5q-19 -20 -33 -55l-70 34q17 35 45 62q35 34 82 51t99 17t99.5 -17t82.5 -51t52.5 -79.5t17.5 -96.5t-17.5 -96.5t-52.5 -79.5q-56 -55 -141 -66v-181
h-82v235h41q35 0 67.5 14zM255.5 92.5q15.5 15.5 38.5 15.5t38.5 -15.5t15.5 -38.5t-15.5 -38.5t-38.5 -15.5t-38.5 15.5t-15.5 38.5t15.5 38.5z" />
    <glyph glyph-name="at" unicode="@" horiz-adv-x="938" 
d="M631 68q78 21 126 64l40 -56q-62 -45 -148 -65.5t-180 -20.5q-88 0 -168.5 33t-138.5 96q-60 65 -90 150.5t-30 180.5t30 180.5t90 150.5q58 63 138.5 96t168.5 33t168.5 -33t138.5 -96q60 -65 90 -150.5t30 -180.5q0 -43 -18.5 -82.5t-51.5 -67.5q-69 -58 -180 -58h-81
v63q-21 -29 -52.5 -46t-66.5 -17q-42 0 -79.5 14.5t-64.5 43.5q-28 29 -42 68t-14 82t14 82t42 68q27 29 64.5 43.5t79.5 14.5q35 0 66.5 -17t52.5 -46v63h81v-360q74 0 121 43q23 21 35 49.5t12 59.5q0 82 -24 157t-73 133q-46 54 -111.5 83.5t-136.5 29.5
q-72 0 -137.5 -29.5t-111.5 -83.5q-49 -58 -72.5 -132.5t-23.5 -157.5t23.5 -157.5t72.5 -132.5q46 -54 111.5 -83.5t137.5 -29.5q84 0 162 21zM399.5 590q-22.5 -11 -38.5 -31q-33 -43 -33 -109t33 -109q16 -20 38.5 -31.5t46.5 -11.5t46.5 11.5t38.5 31.5q34 44 34 109
t-34 109q-16 20 -38 31t-47 11q-24 0 -46.5 -11z" />
    <glyph glyph-name="A" unicode="A" horiz-adv-x="777" 
d="M763 0h-88l-100 244h-398l-100 -244h-63l370 900h9zM551 301l-175 427l-175 -427h350z" />
    <glyph glyph-name="B" unicode="B" horiz-adv-x="735" 
d="M487 884.5q48 -15.5 85 -48.5q35 -30 53.5 -73t18.5 -91q0 -44 -19 -84t-53 -68q-33 -26 -67 -39q47 -16 87 -50q39 -33 60 -81t21 -100t-21 -99t-60 -81q-41 -36 -94 -53t-112 -17h-288v900h288q53 0 101 -15.5zM455 513q33 12 58 36q24 24 37 56t13 67t-13 67t-37 56
q-25 24 -58 36t-69 12h-206v-342h206q36 0 69 12zM466.5 70.5q38.5 13.5 67.5 40.5q28 26 42.5 62.5t14.5 76.5t-14.5 77t-42.5 63q-29 27 -67.5 40.5t-80.5 13.5h-206v-387h206q42 0 80.5 13.5z" />
    <glyph glyph-name="C" unicode="C" horiz-adv-x="945" 
d="M798 119q-58 -63 -139 -96t-169 -33t-169 33t-139 96q-60 65 -90 150.5t-30 180.5t30 180.5t90 150.5q58 63 139 96t169 33t169 -33t139 -96q42 -45 73 -110l-70 -32q-21 52 -62 101q-46 54 -111.5 83.5t-137.5 29.5t-137.5 -29.5t-111.5 -83.5q-50 -58 -73.5 -132.5
t-23.5 -157.5t23.5 -157.5t73.5 -132.5q46 -54 111.5 -83.5t137.5 -29.5t137.5 29.5t111.5 83.5q41 49 62 101l70 -32q-31 -65 -73 -110z" />
    <glyph glyph-name="D" unicode="D" horiz-adv-x="882" 
d="M545 868q83 -32 143 -94q61 -63 92 -147t31 -177t-31 -177t-92 -147q-60 -62 -142.5 -94t-173.5 -32h-274v900h274q90 0 173 -32zM513.5 85.5q67.5 28.5 116.5 81.5q51 56 75.5 129t24.5 154t-24.5 154t-75.5 129q-49 53 -116.5 81.5t-141.5 28.5h-192v-786h192
q74 0 141.5 28.5z" />
    <glyph glyph-name="E" unicode="E" horiz-adv-x="651" 
d="M602 843h-422v-365h382v-56h-382v-365h422v-57h-504v900h504v-57z" />
    <glyph glyph-name="F" unicode="F" horiz-adv-x="630" 
d="M602 843h-422v-365h382v-56h-382v-422h-82v900h504v-57z" />
    <glyph glyph-name="G" unicode="G" horiz-adv-x="1001" 
d="M769 96q-54 -53 -126.5 -79.5t-152.5 -26.5q-88 0 -169 33t-139 96q-60 65 -90 150.5t-30 180.5t30 180.5t90 150.5q58 63 139 96t169 33t169 -33t139 -96q36 -39 60 -84l-67 -37q-24 48 -52 80q-46 54 -111.5 83.5t-137.5 29.5t-137.5 -29.5t-111.5 -83.5
q-50 -58 -73.5 -132.5t-23.5 -157.5t23.5 -157.5t73.5 -132.5q46 -54 111.5 -83.5t137.5 -29.5q71 0 135.5 22.5t113.5 67.5q47 44 72 104.5t25 127.5v53h-346v56h428v-478h-82v190q-28 -57 -67 -94z" />
    <glyph glyph-name="H" unicode="H" horiz-adv-x="840" 
d="M180 478h480v422h81v-900h-81v422h-480v-422h-82v900h82v-422z" />
    <glyph glyph-name="I" unicode="I" horiz-adv-x="306" 
d="M194 0h-82v900h82v-900z" />
    <glyph glyph-name="J" unicode="J" horiz-adv-x="616" 
d="M506.5 137.5q-19.5 -46.5 -55.5 -79.5q-38 -35 -88.5 -51.5t-106.5 -16.5t-106.5 16.5t-88.5 51.5q-22 19 -40 49l66 40q12 -26 33 -47q26 -26 61.5 -39.5t74.5 -13.5t74.5 13.5t61.5 39.5t39.5 61t13.5 74v665h81v-665q0 -51 -19.5 -97.5z" />
    <glyph glyph-name="K" unicode="K" horiz-adv-x="742" 
d="M635 900h84l-333 -328l333 -572h-98l-297 510l-144 -143v-367h-82v900h82v-450z" />
    <glyph glyph-name="L" unicode="L" horiz-adv-x="644" 
d="M180 57h422v-57h-504v900h82v-843z" />
    <glyph glyph-name="M" unicode="M" horiz-adv-x="1085" 
d="M542 115l435 785h9v-900h-82v646l-357 -646h-9l-358 646v-646h-82v900h9z" />
    <glyph glyph-name="N" unicode="N" horiz-adv-x="875" 
d="M696 183v717h81v-900h-9l-588 717v-717h-82v900h9z" />
    <glyph glyph-name="O" unicode="O" horiz-adv-x="980" 
d="M659 877q81 -33 139 -96q60 -65 90 -150.5t30 -180.5t-30 -180.5t-90 -150.5q-58 -63 -139 -96t-169 -33t-169 33t-139 96q-60 65 -90 150.5t-30 180.5t30 180.5t90 150.5q58 63 139 96t169 33t169 -33zM352.5 823.5q-65.5 -29.5 -111.5 -83.5q-50 -58 -73.5 -132.5
t-23.5 -157.5t23.5 -157.5t73.5 -132.5q46 -54 111.5 -83.5t137.5 -29.5t137.5 29.5t111.5 83.5q50 58 73.5 132.5t23.5 157.5t-23.5 157.5t-73.5 132.5q-46 54 -111.5 83.5t-137.5 29.5t-137.5 -29.5z" />
    <glyph glyph-name="P" unicode="P" horiz-adv-x="714" 
d="M485.5 880.5q57.5 -19.5 101.5 -58.5q42 -38 64 -90.5t22 -110.5t-22 -110t-64 -90q-44 -39 -101.5 -58.5t-120.5 -19.5h-185v-343h-82v900h267q63 0 120.5 -19.5zM454 415.5q43 15.5 74 46.5t47 72t16 87t-16 87.5t-47 72.5t-74 46.5t-89 15.5h-185v-443h185
q46 0 89 15.5z" />
    <glyph glyph-name="Q" unicode="Q" horiz-adv-x="980" 
d="M659 877q81 -33 139 -96q60 -65 90 -150.5t30 -180.5q0 -91 -28 -174t-83 -147l122 -129h-104l-73 77q-55 -42 -122.5 -64.5t-139.5 -22.5q-88 0 -169 33t-139 96q-60 65 -90 150.5t-30 180.5t30 180.5t90 150.5q58 63 139 96t169 33t169 -33zM352.5 823.5
q-65.5 -29.5 -111.5 -83.5q-50 -58 -73.5 -132.5t-23.5 -157.5t23.5 -157.5t73.5 -132.5q46 -54 111.5 -83.5t137.5 -29.5q59 0 115 20.5t100 58.5l-133 140h105l80 -84q79 109 79 268q0 83 -23.5 157.5t-73.5 132.5q-46 54 -111.5 83.5t-137.5 29.5t-137.5 -29.5z" />
    <glyph glyph-name="R" unicode="R" horiz-adv-x="707" 
d="M485.5 882q57.5 -18 101.5 -55q41 -35 63.5 -85t22.5 -104t-22.5 -103.5t-63.5 -84.5q-47 -40 -113 -59l227 -391h-97l-212 377q-9 -1 -27 -1h-185v-376h-82v900h267q63 0 120.5 -18zM454 448q42 14 74 43q30 27 46.5 66t16.5 81q0 43 -16.5 82t-46.5 66q-32 29 -74 43
t-89 14h-185v-409h185q47 0 89 14z" />
    <glyph glyph-name="S" unicode="S" horiz-adv-x="728" 
d="M200 102q32 -28 73.5 -41.5t87.5 -13.5q105 0 165 52q30 25 44.5 63t14.5 80q0 58 -33.5 104.5t-88.5 60.5l-191 34q-85 23 -140.5 84t-55.5 141q0 53 19 100t57 79q76 65 209 65q59 0 112 -16.5t94 -51.5q36 -30 56 -73l-74 -25q-17 36 -41 57q-29 26 -67 39t-80 13
q-95 0 -149 -50q-27 -25 -40.5 -60.5t-13.5 -76.5q0 -59 36 -106t93 -62l191 -34q82 -22 135.5 -82.5t53.5 -139.5q0 -55 -20.5 -103.5t-60.5 -81.5q-81 -67 -225 -67q-62 0 -118.5 17t-100.5 53t-67 89l73 31q15 -46 52 -78z" />
    <glyph glyph-name="T" unicode="T" horiz-adv-x="644" 
d="M632 843h-269v-843h-81v843h-270v57h620v-57z" />
    <glyph glyph-name="U" unicode="U" horiz-adv-x="832" 
d="M714 162.5q-23 -54.5 -67 -92.5q-46 -41 -105.5 -60.5t-125.5 -19.5t-126 20t-106 60q-44 38 -67 92.5t-23 114.5v623h82v-623q0 -48 17 -91t50 -75t78 -48t95 -16t94 16t78 48q33 32 50.5 75.5t17.5 90.5v623h81v-623q0 -60 -23 -114.5z" />
    <glyph glyph-name="V" unicode="V" horiz-adv-x="736" 
d="M661 900h64l-352 -900h-9l-352 900h87l281 -717z" />
    <glyph glyph-name="W" unicode="W" horiz-adv-x="1092" 
d="M515 539l-140 361h88l95 -248l96 248h63l-127 -330l149 -386l276 716h63l-347 -900h-9l-176 457l-176 -457h-9l-347 900h87l277 -716z" />
    <glyph glyph-name="X" unicode="X" horiz-adv-x="693" 
d="M599 900h72l-283 -430l297 -470h-95l-250 397l-261 -397h-71l297 452l-283 448h95l236 -375z" />
    <glyph glyph-name="Y" unicode="Y" horiz-adv-x="728" 
d="M652 900h69l-316 -553v-347h-81v347l-316 553h93l276 -483z" />
    <glyph glyph-name="Z" unicode="Z" horiz-adv-x="714" 
d="M681 891l-520 -834h520v-57h-647v9l519 834h-519v57h647v-9z" />
    <glyph glyph-name="bracketleft" unicode="[" horiz-adv-x="392" 
d="M349 888h-141v-1131h141v-57h-223v1245h223v-57z" />
    <glyph glyph-name="backslash" unicode="\" horiz-adv-x="525" 
d="M496 -45h-90l-378 990h90z" />
    <glyph glyph-name="bracketright" unicode="]" horiz-adv-x="392" 
d="M42 -300v57h142v1131h-142v57h223v-1245h-223z" />
    <glyph glyph-name="asciicircum" unicode="^" horiz-adv-x="756" 
d="M333 900h91l282 -540h-92l-236 452l-235 -452h-92z" />
    <glyph glyph-name="underscore" unicode="_" horiz-adv-x="658" 
d="M617 -132h-575v57h575v-57z" />
    <glyph glyph-name="quoteleft" unicode="&#x2018;" horiz-adv-x="357" 
d="M75 608l127 292h63l-105 -292h-85z" />
    <glyph glyph-name="a" unicode="a" horiz-adv-x="658" 
d="M416 341q48 -19 77 -54v73q0 37 -12.5 70t-37.5 58t-58 37.5t-70 12.5t-70 -12.5t-58 -37.5q-16 -16 -29 -40l-63 42q16 22 34 39q37 33 85 49.5t101 16.5t101.5 -16.5t85.5 -49.5q35 -32 53.5 -76t18.5 -93v-360h-81v62q-29 -34 -77 -53t-101 -19q-112 0 -186 52
q-34 24 -53.5 59t-19.5 74t19.5 74t53.5 59q74 52 186 52q53 0 101 -19zM187 267q-23 -17 -36 -41t-13 -51t13 -51t36 -41q51 -36 128 -36t128 36q23 17 36.5 41t13.5 51t-13.5 51t-36.5 41q-51 36 -128 36t-128 -36z" />
    <glyph glyph-name="b" unicode="b" horiz-adv-x="721" 
d="M257 25.5q-56 35.5 -85 91.5v-117h-82v950h82v-482q29 56 85 91.5t120 35.5q60 0 114 -22t93 -63q40 -42 60.5 -99t20.5 -119t-20.5 -118.5t-60.5 -98.5q-39 -41 -93 -63t-114 -22q-64 0 -120 35.5zM295.5 520q-38.5 -18 -66.5 -51q-57 -68 -57 -177q0 -108 57 -176
q28 -33 66.5 -51t81.5 -18t82 18t67 51q57 68 57 176q0 109 -57 177q-28 33 -67 51t-82 18t-81.5 -18z" />
    <glyph glyph-name="c" unicode="c" horiz-adv-x="669" 
d="M562 75q-40 -42 -95.5 -63.5t-116.5 -21.5t-116 21.5t-95 63.5q-41 43 -62 99t-21 118t21 118.5t62 99.5q40 42 95 63.5t116 21.5t116.5 -21.5t95.5 -63.5q35 -35 56 -83l-72 -31q-16 43 -42 73q-28 33 -69 51t-85 18t-84.5 -18t-68.5 -51q-59 -69 -59 -177
q0 -107 59 -176q28 -33 68.5 -51t84.5 -18t85 18t69 51q26 30 42 73l72 -31q-21 -48 -56 -83z" />
    <glyph glyph-name="d" unicode="d" horiz-adv-x="721" 
d="M464 559.5q56 -35.5 85 -91.5v482h82v-950h-82v117q-29 -56 -85 -91.5t-121 -35.5q-59 0 -113 22t-93 63q-40 42 -60.5 98.5t-20.5 118.5t20.5 119t60.5 99q39 41 93 63t113 22q65 0 121 -35.5zM261.5 520q-38.5 -18 -66.5 -51q-57 -68 -57 -177q0 -108 57 -176
q28 -33 66.5 -51t81.5 -18t81.5 18t66.5 51q58 69 58 176q0 50 -14 96t-44 81q-28 33 -66.5 51t-81.5 18t-81.5 -18z" />
    <glyph glyph-name="e" unicode="e" horiz-adv-x="693" 
d="M562 61q-42 -36 -96.5 -53.5t-115.5 -17.5t-116 21.5t-95 63.5q-41 43 -62 99t-21 118t21 118.5t62 99.5q40 42 95 63.5t116 21.5t116.5 -21.5t95.5 -63.5q41 -43 62 -99.5t21 -118.5v-28h-506q8 -92 58 -148q28 -33 68.5 -51t84.5 -18t84 13.5t70 41.5q24 22 39 53
l65 -41q-18 -29 -46 -53zM504 469q-28 33 -69 51t-85 18t-84.5 -18t-68.5 -51q-50 -56 -58 -148h423q-8 92 -58 148z" />
    <glyph glyph-name="f" unicode="f" horiz-adv-x="413" 
d="M253.5 879q-12.5 -24 -12.5 -55v-239h112v-57h-112v-528h-82v528h-113v57h113v239q0 28 9.5 53.5t27.5 44.5q37 38 95 38t95 -38q18 -19 27.5 -44.5t9.5 -53.5h-82q0 31 -12.5 55t-37.5 24t-37.5 -24z" />
    <glyph glyph-name="g" unicode="g" horiz-adv-x="714" 
d="M609.5 -163.5q-21.5 -46.5 -59.5 -78.5q-41 -35 -94.5 -51.5t-112.5 -16.5t-112 16.5t-94 51.5q-28 24 -46 53l65 41q17 -33 39 -53q29 -26 67.5 -39t80.5 -13t80.5 13t67.5 39q28 25 43 60t15 74v192q-13 -24 -28 -42q-33 -40 -79.5 -61.5t-98.5 -21.5q-59 0 -112.5 21
t-93.5 62q-40 42 -60.5 98t-20.5 117t20.5 116.5t60.5 97.5q40 41 93.5 62t112.5 21q52 0 98.5 -21.5t79.5 -61.5q15 -18 28 -42v115h82v-652q0 -50 -21.5 -96.5zM261.5 520.5q-38.5 -17.5 -66.5 -49.5q-57 -67 -57 -173q0 -107 57 -174q28 -32 66.5 -49.5t81.5 -17.5
t81.5 17.5t66.5 49.5q30 35 44 79.5t14 94.5q0 105 -58 173q-28 32 -66.5 49.5t-81.5 17.5t-81.5 -17.5z" />
    <glyph glyph-name="h" unicode="h" horiz-adv-x="637" 
d="M464.5 454q-14.5 37 -42.5 60.5t-66 23.5q-82 0 -133 -45q-24 -22 -37.5 -52.5t-13.5 -63.5v-377h-82v950h82v-442q29 40 79 63.5t105 23.5q42 0 80.5 -15.5t66.5 -45.5q28 -31 42.5 -71.5t14.5 -85.5v-377h-81v377q0 40 -14.5 77z" />
    <glyph glyph-name="i" unicode="i" horiz-adv-x="266" 
d="M93 831q16 16 40 16t39.5 -16t15.5 -40t-15.5 -40t-39.5 -16t-40 16t-16 40t16 40zM173 0h-81v585h81v-585z" />
    <glyph glyph-name="j" unicode="j" horiz-adv-x="294" 
d="M119 831q16 16 40 16t40 -16t16 -40t-16 -40t-40 -16t-40 16t-16 40t16 40zM100 -215q27 38 27 89v711h82v-711q0 -38 -13 -73t-38 -60t-59 -38t-72 -13q-47 0 -88 21t-64 57l64 41q12 -27 35.5 -44.5t52.5 -17.5q46 0 73 38z" />
    <glyph glyph-name="k" unicode="k" horiz-adv-x="609" 
d="M513 585h81l-248 -241l248 -344h-109l-203 282l-110 -106v-176h-82v950h82v-695z" />
    <glyph glyph-name="l" unicode="l" horiz-adv-x="250" 
d="M166 0h-82v950h82v-950z" />
    <glyph glyph-name="m" unicode="m" horiz-adv-x="1015" 
d="M244 571.5q49 23.5 104 23.5q42 0 80.5 -15.5t66.5 -45.5q22 -24 37 -58q13 29 42 58q31 31 72.5 46t87.5 15q42 0 80.5 -15.5t66.5 -45.5q28 -31 42.5 -71.5t14.5 -85.5v-377h-82v377q0 71 -34 116q-16 21 -39 33t-49 12q-80 0 -131 -45q-24 -22 -37.5 -52.5
t-13.5 -63.5v-377h-82v377q0 71 -34 116q-16 21 -39 33t-49 12q-80 0 -131 -45q-24 -22 -37.5 -52.5t-13.5 -63.5v-377h-82v585h82v-77q29 40 78 63.5z" />
    <glyph glyph-name="n" unicode="n" 
d="M166 503q12 17 28 31q35 31 80.5 46t95.5 15q45 0 86 -15.5t71 -45.5t45.5 -71t15.5 -86v-377h-81v377q0 71 -38 116q-18 22 -44 33.5t-55 11.5q-90 0 -147 -45q-27 -21 -42 -51.5t-15 -64.5v-377h-82v585h82v-82z" />
    <glyph glyph-name="o" unicode="o" horiz-adv-x="700" 
d="M466.5 573.5q55.5 -21.5 95.5 -63.5q41 -43 62 -99.5t21 -118.5t-21 -118t-62 -99q-40 -42 -95.5 -63.5t-116.5 -21.5t-116 21.5t-95 63.5q-41 43 -62 99t-21 118t21 118.5t62 99.5q40 42 95 63.5t116 21.5t116.5 -21.5zM265.5 520q-40.5 -18 -68.5 -51q-59 -69 -59 -177
q0 -107 59 -176q28 -33 68.5 -51t84.5 -18t85 18t69 51q59 69 59 176q0 108 -59 177q-28 33 -69 51t-85 18t-84.5 -18z" />
    <glyph glyph-name="p" unicode="p" horiz-adv-x="714" 
d="M251 25.5q-56 35.5 -85 91.5v-417h-82v885h82v-117q29 56 85 91.5t120 35.5q60 0 114 -22t93 -63q40 -42 60.5 -99t20.5 -119t-20.5 -118.5t-60.5 -98.5q-39 -41 -93 -63t-114 -22q-64 0 -120 35.5zM289.5 520q-38.5 -18 -66.5 -51q-57 -68 -57 -177q0 -108 57 -176
q28 -33 66.5 -51t81.5 -18t82 18t67 51q57 68 57 176q0 109 -57 177q-28 33 -67 51t-82 18t-81.5 -18z" />
    <glyph glyph-name="q" unicode="q" horiz-adv-x="714" 
d="M464 559.5q56 -35.5 85 -91.5v117h82v-885h-82v417q-29 -56 -85 -91.5t-121 -35.5q-59 0 -113 22t-93 63q-40 42 -60.5 98.5t-20.5 118.5t20.5 119t60.5 99q39 41 93 63t113 22q65 0 121 -35.5zM261.5 520q-38.5 -18 -66.5 -51q-57 -68 -57 -177q0 -108 57 -176
q28 -33 66.5 -51t81.5 -18t81.5 18t66.5 51q58 69 58 176q0 50 -14 96t-44 81q-28 33 -66.5 51t-81.5 18t-81.5 -18z" />
    <glyph glyph-name="r" unicode="r" horiz-adv-x="412" 
d="M234 570q42 25 91 25q48 0 94 -17l-22 -58q-33 18 -72 18q-33 0 -63.5 -14t-51.5 -39q-44 -52 -44 -137v-348h-82v585h82v-81q26 41 68 66z" />
    <glyph glyph-name="s" unicode="s" horiz-adv-x="560" 
d="M365 516q-37 22 -85 22q-63 0 -100 -29q-18 -14 -27 -35t-9 -45q0 -37 24.5 -64.5t61.5 -32.5l137 -20q63 -9 107 -51.5t44 -100.5q0 -37 -16.5 -70t-46.5 -55q-63 -45 -175 -45q-104 0 -171 48q-40 29 -56 68l74 31q11 -43 55 -66.5t98 -23.5q74 0 115 30q20 14 31 36
t11 47q0 35 -22.5 62.5t-56.5 32.5l-137 20q-67 10 -113 52.5t-46 101.5q0 36 15 68.5t43 53.5q58 44 160 44q96 0 157 -46q30 -23 48 -60l-72 -33q-11 38 -48 60z" />
    <glyph glyph-name="t" unicode="t" horiz-adv-x="378" 
d="M148 950h82v-365h127v-57h-127v-528h-82v528h-128v57h128v365z" />
    <glyph glyph-name="u" unicode="u" 
d="M425 12.5q-46 -22.5 -97 -22.5q-110 0 -181 61q-34 29 -52.5 70.5t-18.5 86.5v377h82v-377q0 -34 12 -64t35 -52q24 -23 56 -34t67 -11t67 11t56 34q24 22 36 52t12 64v377h81v-585h-81v73q-28 -38 -74 -60.5z" />
    <glyph glyph-name="v" unicode="v" horiz-adv-x="588" 
d="M513 585h67l-281 -585h-9l-282 585h90l208 -430z" />
    <glyph glyph-name="w" unicode="w" horiz-adv-x="903" 
d="M419 364l-109 221h91l64 -129l63 129h65l-96 -195l119 -241l215 436h65l-289 -585h-9l-146 298l-147 -298h-9l-288 585h91l215 -436z" />
    <glyph glyph-name="x" unicode="x" horiz-adv-x="567" 
d="M464 585h74l-211 -275l225 -310h-98l-178 244l-188 -244h-74l226 294l-212 291h98l164 -225z" />
    <glyph glyph-name="y" unicode="y" horiz-adv-x="588" 
d="M514 585h66l-390 -885h-66l137 310l-253 575h89l209 -474z" />
    <glyph glyph-name="z" unicode="z" horiz-adv-x="518" 
d="M484 576l-319 -519h319v-57h-450v9l319 519h-319v57h450v-9z" />
    <glyph glyph-name="braceleft" unicode="{" horiz-adv-x="427" 
d="M140.5 414q28.5 43 28.5 100v184q0 74 52.5 138t126.5 107l31 -54q-54 -35 -91 -84.5t-37 -106.5v-184q0 -55 -19.5 -104.5t-55.5 -79.5q36 -30 55.5 -80t19.5 -104v-184q0 -57 37 -106.5t91 -84.5l-31 -54q-74 43 -126.5 107t-52.5 138v184q0 57 -28.5 100t-78.5 43v82
q50 0 78.5 43z" />
    <glyph glyph-name="bar" unicode="|" horiz-adv-x="280" 
d="M180 -45h-81v990h81v-990z" />
    <glyph glyph-name="braceright" unicode="}" horiz-adv-x="427" 
d="M287 246q-28 -43 -28 -100v-184q0 -79 -59 -146.5t-139 -108.5l-28 54q60 34 102 87t42 114v184q0 55 19.5 104.5t55.5 79.5q-36 30 -55.5 80t-19.5 104v184q0 61 -42 114t-102 87l28 54q80 -41 139 -108.5t59 -146.5v-184q0 -57 28 -100t78 -43v-82q-50 0 -78 -43z" />
    <glyph glyph-name="asciitilde" unicode="~" horiz-adv-x="686" 
d="M159 278q-21 -31 -21 -73h-82q0 33 11.5 63.5t33.5 52.5q23 22 53 33.5t63 11.5q31 0 59 -11.5t67 -33.5q42 -23 69 -34t57 -11q37 0 58.5 31.5t21.5 72.5h82q0 -33 -12 -63.5t-34 -52.5q-23 -22 -53 -33.5t-63 -11.5q-30 0 -57 11t-69 34q-39 22 -67 33.5t-59 11.5
q-37 0 -58 -31z" />
    <glyph glyph-name="dash" horiz-adv-x="441" 
d="M386 264h-330v57h330v-57z" />
    <glyph glyph-name="Abreve" unicode="&#x102;" horiz-adv-x="777" 
d="M478 1056.5q41 18.5 41 55.5h65q0 -27 -15 -50.5t-40 -39.5q-54 -35 -140 -35q-87 0 -141 35q-25 16 -40 39.5t-15 50.5h65q0 -37 41 -55.5t90 -18.5q48 0 89 18.5zM763 0h-88l-100 244h-398l-100 -244h-63l370 900h9zM551 301l-175 427l-175 -427h350z" />
    <glyph glyph-name="Aogonek" unicode="&#x104;" horiz-adv-x="777" 
d="M767.5 -307.5q-34.5 -9.5 -72.5 -9.5q-79 0 -129 35q-23 16 -36 39.5t-13 50.5q0 31 18 50t57 44q38 23 56 42l53 56h-26l-100 244h-398l-100 -244h-63l370 900h9l370 -900h-8l-95 -101q-13 -14 -32 -27q-24 -19 -35 -32t-11 -32q0 -38 34.5 -59t78.5 -21q30 0 57 10
t41 29l35 -45q-26 -20 -60.5 -29.5zM551 301l-175 427l-175 -427h350z" />
    <glyph glyph-name="Cacute" unicode="&#x106;" horiz-adv-x="945" 
d="M431 967l123 180h102l-149 -180h-76zM798 119q-58 -63 -139 -96t-169 -33t-169 33t-139 96q-60 65 -90 150.5t-30 180.5t30 180.5t90 150.5q58 63 139 96t169 33t169 -33t139 -96q42 -45 73 -110l-70 -32q-21 52 -62 101q-46 54 -111.5 83.5t-137.5 29.5t-137.5 -29.5
t-111.5 -83.5q-50 -58 -73.5 -132.5t-23.5 -157.5t23.5 -157.5t73.5 -132.5q46 -54 111.5 -83.5t137.5 -29.5t137.5 29.5t111.5 83.5q41 49 62 101l70 -32q-31 -65 -73 -110z" />
    <glyph glyph-name="Ccaron" unicode="&#x10c;" horiz-adv-x="945" 
d="M438 967l-126 180h76l102 -119l102 119h76l-126 -180h-104zM798 119q-58 -63 -139 -96t-169 -33t-169 33t-139 96q-60 65 -90 150.5t-30 180.5t30 180.5t90 150.5q58 63 139 96t169 33t169 -33t139 -96q42 -45 73 -110l-70 -32q-21 52 -62 101q-46 54 -111.5 83.5
t-137.5 29.5t-137.5 -29.5t-111.5 -83.5q-50 -58 -73.5 -132.5t-23.5 -157.5t23.5 -157.5t73.5 -132.5q46 -54 111.5 -83.5t137.5 -29.5t137.5 29.5t111.5 83.5q41 49 62 101l70 -32q-31 -65 -73 -110z" />
    <glyph glyph-name="Dcaron" unicode="&#x10e;" horiz-adv-x="882" 
d="M326 967l-126 180h76l102 -119l102 119h76l-126 -180h-104zM545 868q83 -32 143 -94q61 -63 92 -147t31 -177t-31 -177t-92 -147q-60 -62 -142.5 -94t-173.5 -32h-274v900h274q90 0 173 -32zM513.5 85.5q67.5 28.5 116.5 81.5q51 56 75.5 129t24.5 154t-24.5 154
t-75.5 129q-49 53 -116.5 81.5t-141.5 28.5h-192v-786h192q74 0 141.5 28.5z" />
    <glyph glyph-name="Ecaron" unicode="&#x11a;" horiz-adv-x="651" 
d="M299 967l-127 180h77l101 -119l102 119h77l-127 -180h-103zM602 843h-422v-365h382v-56h-382v-365h422v-57h-504v900h504v-57z" />
    <glyph glyph-name="Eogonek" unicode="&#x118;" horiz-adv-x="651" 
d="M610.5 -307.5q-34.5 -9.5 -72.5 -9.5q-78 0 -128 35q-23 16 -36.5 40t-13.5 50q0 31 18.5 50t57.5 44q38 23 56 42l52 56h-446v900h504v-57h-422v-365h382v-56h-382v-365h422v-57h-3l-96 -101q-13 -14 -32 -27q-24 -19 -35 -32t-11 -32q0 -38 34.5 -59t78.5 -21
q30 0 57 10t41 29l35 -45q-26 -20 -60.5 -29.5z" />
    <glyph glyph-name="Gbreve" unicode="&#x11e;" horiz-adv-x="1001" 
d="M579 1056.5q41 18.5 41 55.5h66q0 -27 -15 -50.5t-40 -39.5q-54 -35 -141 -35t-141 35q-25 16 -40 39.5t-15 50.5h66q0 -37 41 -55.5t89 -18.5t89 18.5zM769 96q-54 -53 -126.5 -79.5t-152.5 -26.5q-88 0 -169 33t-139 96q-60 65 -90 150.5t-30 180.5t30 180.5t90 150.5
q58 63 139 96t169 33t169 -33t139 -96q36 -39 60 -84l-67 -37q-24 48 -52 80q-46 54 -111.5 83.5t-137.5 29.5t-137.5 -29.5t-111.5 -83.5q-50 -58 -73.5 -132.5t-23.5 -157.5t23.5 -157.5t73.5 -132.5q46 -54 111.5 -83.5t137.5 -29.5q71 0 135.5 22.5t113.5 67.5
q47 44 72 104.5t25 127.5v53h-346v56h428v-478h-82v190q-28 -57 -67 -94z" />
    <glyph glyph-name="Lacute" unicode="&#x139;" horiz-adv-x="644" 
d="M80 967l123 180h102l-149 -180h-76zM180 57h422v-57h-504v900h82v-843z" />
    <glyph glyph-name="Lcaron" unicode="&#x13d;" horiz-adv-x="644" 
d="M180 57h422v-57h-504v900h82v-843zM324 608l106 292h84l-127 -292h-63z" />
    <glyph glyph-name="Lslash" unicode="&#x141;" horiz-adv-x="658" 
d="M28 273v84l84 54v489h82v-436l254 163v-84l-254 -164v-322h423v-57h-505v327z" />
    <glyph glyph-name="Nacute" unicode="&#x143;" horiz-adv-x="875" 
d="M379 967l123 180h102l-149 -180h-76zM696 183v717h81v-900h-9l-588 717v-717h-82v900h9z" />
    <glyph glyph-name="Ncaron" unicode="&#x147;" horiz-adv-x="875" 
d="M386 967l-127 180h77l102 -119l102 119h76l-127 -180h-103zM696 183v717h81v-900h-9l-588 717v-717h-82v900h9z" />
    <glyph glyph-name="Eng" unicode="&#x14a;" horiz-adv-x="875" 
d="M501.5 -234.5q31.5 -18.5 67.5 -18.5q56 0 91 35q18 18 27 42t9 50v214l-516 629v-717h-82v900h9l589 -717v717h81v-1026q0 -38 -15 -73.5t-43 -59.5q-58 -51 -150 -51q-53 0 -100.5 20.5t-74.5 57.5l61 45q15 -29 46.5 -47.5z" />
    <glyph glyph-name="Ohungarumlaut" unicode="&#x150;" horiz-adv-x="980" 
d="M401 967h-73l112 180h100zM537 967l112 180h99l-138 -180h-73zM659 877q81 -33 139 -96q60 -65 90 -150.5t30 -180.5t-30 -180.5t-90 -150.5q-58 -63 -139 -96t-169 -33t-169 33t-139 96q-60 65 -90 150.5t-30 180.5t30 180.5t90 150.5q58 63 139 96t169 33t169 -33z
M352.5 823.5q-65.5 -29.5 -111.5 -83.5q-50 -58 -73.5 -132.5t-23.5 -157.5t23.5 -157.5t73.5 -132.5q46 -54 111.5 -83.5t137.5 -29.5t137.5 29.5t111.5 83.5q50 58 73.5 132.5t23.5 157.5t-23.5 157.5t-73.5 132.5q-46 54 -111.5 83.5t-137.5 29.5t-137.5 -29.5z" />
    <glyph glyph-name="Racute" unicode="&#x154;" horiz-adv-x="707" 
d="M264 967l122 180h102l-149 -180h-75zM485.5 882q57.5 -18 101.5 -55q41 -35 63.5 -85t22.5 -104t-22.5 -103.5t-63.5 -84.5q-47 -40 -113 -59l227 -391h-97l-212 377q-9 -1 -27 -1h-185v-376h-82v900h267q63 0 120.5 -18zM454 448q42 14 74 43q30 27 46.5 66t16.5 81
q0 43 -16.5 82t-46.5 66q-32 29 -74 43t-89 14h-185v-409h185q47 0 89 14z" />
    <glyph glyph-name="Rcaron" unicode="&#x158;" horiz-adv-x="707" 
d="M271 967l-127 180h77l101 -119l102 119h77l-127 -180h-103zM485.5 882q57.5 -18 101.5 -55q41 -35 63.5 -85t22.5 -104t-22.5 -103.5t-63.5 -84.5q-47 -40 -113 -59l227 -391h-97l-212 377q-9 -1 -27 -1h-185v-376h-82v900h267q63 0 120.5 -18zM454 448q42 14 74 43
q30 27 46.5 66t16.5 81q0 43 -16.5 82t-46.5 66q-32 29 -74 43t-89 14h-185v-409h185q47 0 89 14z" />
    <glyph glyph-name="Sacute" unicode="&#x15a;" horiz-adv-x="728" 
d="M303 967l122 180h102l-149 -180h-75zM200 102q32 -28 73.5 -41.5t87.5 -13.5q105 0 165 52q30 25 44.5 63t14.5 80q0 58 -33.5 104.5t-88.5 60.5l-191 34q-85 23 -140.5 84t-55.5 141q0 53 19 100t57 79q76 65 209 65q59 0 112 -16.5t94 -51.5q36 -30 56 -73l-74 -25
q-17 36 -41 57q-29 26 -67 39t-80 13q-95 0 -149 -50q-27 -25 -40.5 -60.5t-13.5 -76.5q0 -59 36 -106t93 -62l191 -34q82 -22 135.5 -82.5t53.5 -139.5q0 -55 -20.5 -103.5t-60.5 -81.5q-81 -67 -225 -67q-62 0 -118.5 17t-100.5 53t-67 89l73 31q15 -46 52 -78z" />
    <glyph glyph-name="Scaron" unicode="&#x160;" horiz-adv-x="728" 
d="M310 967l-127 180h77l101 -119l102 119h77l-127 -180h-103zM200 102q32 -28 73.5 -41.5t87.5 -13.5q105 0 165 52q30 25 44.5 63t14.5 80q0 58 -33.5 104.5t-88.5 60.5l-191 34q-85 23 -140.5 84t-55.5 141q0 53 19 100t57 79q76 65 209 65q59 0 112 -16.5t94 -51.5
q36 -30 56 -73l-74 -25q-17 36 -41 57q-29 26 -67 39t-80 13q-95 0 -149 -50q-27 -25 -40.5 -60.5t-13.5 -76.5q0 -59 36 -106t93 -62l191 -34q82 -22 135.5 -82.5t53.5 -139.5q0 -55 -20.5 -103.5t-60.5 -81.5q-81 -67 -225 -67q-62 0 -118.5 17t-100.5 53t-67 89l73 31
q15 -46 52 -78z" />
    <glyph glyph-name="Scedilla" unicode="&#x15e;" horiz-adv-x="728" 
d="M439.5 -133.5q-34.5 20.5 -78.5 20.5h-60l23 105q-112 10 -182 68q-44 36 -67 89l73 31q15 -46 52 -78q32 -28 73.5 -41.5t87.5 -13.5q105 0 165 52q30 25 44.5 63t14.5 80q0 58 -33.5 104.5t-88.5 60.5l-191 34q-85 23 -140.5 84t-55.5 141q0 53 19 100t57 79
q76 65 209 65q59 0 112 -16.5t94 -51.5q36 -30 56 -73l-74 -25q-17 36 -41 57q-29 26 -67 39t-80 13q-95 0 -149 -50q-27 -25 -40.5 -60.5t-13.5 -76.5q0 -59 36 -106t93 -62l191 -34q82 -22 135.5 -82.5t53.5 -139.5q0 -55 -20.5 -103.5t-60.5 -81.5q-75 -62 -202 -67
l-12 -57q42 -1 80 -15.5t62.5 -42.5t24.5 -67q0 -26 -13.5 -50t-36.5 -40q-50 -35 -128 -35q-50 0 -94 17t-65 49l51 35q11 -27 41.5 -41.5t66.5 -14.5q44 0 78.5 21t34.5 59t-34.5 58.5z" />
    <glyph glyph-name="Tcaron" unicode="&#x164;" horiz-adv-x="644" 
d="M271 967l-127 180h76l102 -119l102 119h77l-127 -180h-103zM632 843h-269v-843h-81v843h-270v57h620v-57z" />
    <glyph glyph-name="uni0162" unicode="&#x162;" horiz-adv-x="644" 
d="M400.5 -133.5q-34.5 20.5 -78.5 20.5h-60l25 113h-5v843h-270v57h620v-57h-269v-843h-16l-15 -67q42 -1 80.5 -15.5t63 -42.5t24.5 -67q0 -26 -13.5 -50t-36.5 -40q-50 -35 -128 -35q-50 0 -94 17t-65 49l51 35q11 -27 41.5 -41.5t66.5 -14.5q44 0 78.5 21t34.5 59
t-34.5 58.5z" />
    <glyph glyph-name="Uhungarumlaut" unicode="&#x170;" horiz-adv-x="832" 
d="M327 967h-73l112 180h99zM462 967l113 180h99l-138 -180h-74zM714 162.5q-23 -54.5 -67 -92.5q-46 -41 -105.5 -60.5t-125.5 -19.5t-126 20t-106 60q-44 38 -67 92.5t-23 114.5v623h82v-623q0 -48 17 -91t50 -75t78 -48t95 -16t94 16t78 48q33 32 50.5 75.5t17.5 90.5
v623h81v-623q0 -60 -23 -114.5z" />
    <glyph glyph-name="Uring" unicode="&#x16e;" horiz-adv-x="832" 
d="M503 1136q16 -15 25 -35.5t9 -43.5q0 -47 -34 -78q-35 -31 -87 -31q-53 0 -88 31q-34 31 -34 78q0 23 9 43.5t25 35.5q34 30 88 30q53 0 87 -30zM463.5 1107.5q-18.5 20.5 -47.5 20.5t-48 -20.5t-19 -50.5t19 -50.5t48 -20.5t47.5 20.5t18.5 50.5t-18.5 50.5zM714 162.5
q-23 -54.5 -67 -92.5q-46 -41 -105.5 -60.5t-125.5 -19.5t-126 20t-106 60q-44 38 -67 92.5t-23 114.5v623h82v-623q0 -48 17 -91t50 -75t78 -48t95 -16t94 16t78 48q33 32 50.5 75.5t17.5 90.5v623h81v-623q0 -60 -23 -114.5z" />
    <glyph glyph-name="Ydieresis" unicode="&#x178;" horiz-adv-x="728" 
d="M199 1086.5q16 15.5 40 15.5t40 -15.5t16 -39.5t-16 -40t-40 -16t-40 16t-16 40t16 39.5zM450 1086.5q16 15.5 40 15.5t40 -15.5t16 -39.5t-16 -40t-40 -16t-40 16t-16 40t16 39.5zM652 900h69l-316 -553v-347h-81v347l-316 553h93l276 -483z" />
    <glyph glyph-name="Zacute" unicode="&#x179;" horiz-adv-x="714" 
d="M299 967l122 180h102l-149 -180h-75zM681 891l-520 -834h520v-57h-647v9l519 834h-519v57h647v-9z" />
    <glyph glyph-name="Zcaron" unicode="&#x17d;" horiz-adv-x="714" 
d="M306 967l-127 180h77l101 -119l102 119h77l-127 -180h-103zM681 891l-520 -834h520v-57h-647v9l519 834h-519v57h647v-9z" />
    <glyph glyph-name="Zdotaccent" unicode="&#x17b;" horiz-adv-x="714" 
d="M317 1086.5q16 15.5 40 15.5t40 -15.5t16 -39.5t-16 -40t-40 -16t-40 16t-16 40t16 39.5zM681 891l-520 -834h520v-57h-647v9l519 834h-519v57h647v-9z" />
    <glyph glyph-name="IJ" unicode="&#x132;" horiz-adv-x="847" 
d="M194 0h-82v900h82v-900zM413 75q43 -28 92 -28q35 0 67.5 14t55.5 39q24 27 36 62t12 73v665h81v-665q0 -51 -18 -97t-52 -80q-35 -34 -82.5 -51t-99.5 -17t-99 17t-82 51q-20 19 -37 49l66 38q17 -42 60 -70z" />
    <glyph glyph-name="Idotaccent" unicode="&#x130;" horiz-adv-x="306" 
d="M113 1086.5q16 15.5 40 15.5t40 -15.5t16 -39.5t-16 -40t-40 -16t-40 16t-16 40t16 39.5zM194 0h-82v900h82v-900z" />
    <glyph glyph-name="dcroat" unicode="&#x111;" horiz-adv-x="735" 
d="M464 559.5q56 -35.5 85 -91.5v264h-206v56h206v162h82v-162h91v-56h-91v-732h-82v117q-29 -56 -85 -91.5t-121 -35.5q-59 0 -113 22t-93 63q-40 42 -60.5 98.5t-20.5 118.5t20.5 119t60.5 99q39 41 93 63t113 22q65 0 121 -35.5zM261.5 520q-38.5 -18 -66.5 -51
q-57 -68 -57 -177q0 -108 57 -176q28 -33 66.5 -51t81.5 -18t81.5 18t66.5 51q58 69 58 176q0 50 -14 96t-44 81q-28 33 -66.5 51t-81.5 18t-81.5 -18z" />
    <glyph glyph-name="section" unicode="&#xa7;" 
d="M205 -205q24 -24 56 -36t67 -12t67 12t56 36t36 56.5t12 67.5t-12 67.5t-36 56.5t-56 36.5t-67 12.5q-112 0 -181 58q-34 28 -52.5 67t-18.5 83t18.5 83t52.5 67q31 25 66 38q-36 13 -66 39q-34 28 -52.5 69t-18.5 85q0 48 18.5 91t52.5 74q35 32 82 48t99 16t99.5 -16
t82.5 -48q19 -17 39 -49l-66 -39q-13 28 -32 47q-24 24 -56 36t-67 12t-67 -12t-56 -36q-23 -24 -35 -56t-12 -68t12 -68t35 -56q24 -24 56 -36.5t67 -12.5q113 0 182 -58q34 -28 52 -67t18 -83t-18 -83t-52 -67q-31 -25 -66 -38q36 -14 66 -39q33 -28 51.5 -68.5
t18.5 -85.5q0 -48 -18 -91t-52 -74q-35 -32 -82.5 -48t-99.5 -16t-99 16t-82 48q-27 24 -44 56l69 37q14 -33 33 -52zM205 409q-23 -21 -35 -49t-12 -60t12 -60t35 -49q24 -22 56 -32.5t67 -10.5t67 10.5t56 32.5q23 21 35.5 49t12.5 60t-12.5 60t-35.5 49q-46 42 -123 42
t-123 -42z" />
    <glyph glyph-name="abreve" unicode="&#x103;" horiz-adv-x="658" 
d="M405 800.5q41 18.5 41 55.5h65q0 -27 -15 -50t-40 -39q-54 -35 -141 -35t-141 35q-25 15 -39.5 38.5t-14.5 50.5h65q0 -37 41 -55.5t89 -18.5q49 0 90 18.5zM416 341q48 -19 77 -54v73q0 37 -12.5 70t-37.5 58t-58 37.5t-70 12.5t-70 -12.5t-58 -37.5q-16 -16 -29 -40
l-63 42q16 22 34 39q37 33 85 49.5t101 16.5t101.5 -16.5t85.5 -49.5q35 -32 53.5 -76t18.5 -93v-360h-81v62q-29 -34 -77 -53t-101 -19q-112 0 -186 52q-34 24 -53.5 59t-19.5 74t19.5 74t53.5 59q74 52 186 52q53 0 101 -19zM187 267q-23 -17 -36 -41t-13 -51t13 -51
t36 -41q51 -36 128 -36t128 36q23 17 36.5 41t13.5 51t-13.5 51t-36.5 41q-51 36 -128 36t-128 -36z" />
    <glyph glyph-name="aogonek" unicode="&#x105;" horiz-adv-x="658" 
d="M416 341q48 -19 77 -54v73q0 37 -12.5 70t-37.5 58t-58 37.5t-70 12.5t-70 -12.5t-58 -37.5q-16 -16 -29 -40l-63 42q16 22 34 39q37 33 85 49.5t101 16.5t101.5 -16.5t85.5 -49.5q35 -32 53.5 -76t18.5 -93v-349l3 -11l-95 -101q-13 -14 -32 -27q-24 -18 -35 -31.5
t-11 -32.5q0 -38 34.5 -59t77.5 -21q30 0 57 10t41 29l36 -45q-26 -20 -61 -29.5t-73 -9.5q-78 0 -128 35q-23 16 -36.5 40t-13.5 50q0 31 18.5 50t57.5 44q38 23 56 42l53 56h-30v62q-29 -34 -77 -53t-101 -19q-112 0 -186 52q-34 24 -53.5 59t-19.5 74t19.5 74t53.5 59
q74 52 186 52q53 0 101 -19zM187 267q-23 -17 -36 -41t-13 -51t13 -51t36 -41q51 -36 128 -36t128 36q23 17 36.5 41t13.5 51t-13.5 51t-36.5 41q-51 36 -128 36t-128 -36z" />
    <glyph glyph-name="cacute" unicode="&#x107;" horiz-adv-x="669" 
d="M292 712l122 180h102l-149 -180h-75zM562 75q-40 -42 -95.5 -63.5t-116.5 -21.5t-116 21.5t-95 63.5q-41 43 -62 99t-21 118t21 118.5t62 99.5q40 42 95 63.5t116 21.5t116.5 -21.5t95.5 -63.5q35 -35 56 -83l-72 -31q-16 43 -42 73q-28 33 -69 51t-85 18t-84.5 -18
t-68.5 -51q-59 -69 -59 -177q0 -107 59 -176q28 -33 68.5 -51t84.5 -18t85 18t69 51q26 30 42 73l72 -31q-21 -48 -56 -83z" />
    <glyph glyph-name="ccaron" unicode="&#x10d;" horiz-adv-x="669" 
d="M299 712l-127 180h77l101 -119l102 119h77l-127 -180h-103zM562 75q-40 -42 -95.5 -63.5t-116.5 -21.5t-116 21.5t-95 63.5q-41 43 -62 99t-21 118t21 118.5t62 99.5q40 42 95 63.5t116 21.5t116.5 -21.5t95.5 -63.5q35 -35 56 -83l-72 -31q-16 43 -42 73q-28 33 -69 51
t-85 18t-84.5 -18t-68.5 -51q-59 -69 -59 -177q0 -107 59 -176q28 -33 68.5 -51t84.5 -18t85 18t69 51q26 30 42 73l72 -31q-21 -48 -56 -83z" />
    <glyph glyph-name="dcaron" unicode="&#x10f;" horiz-adv-x="721" 
d="M464 559.5q56 -35.5 85 -91.5v482h82v-950h-82v117q-29 -56 -85 -91.5t-121 -35.5q-59 0 -113 22t-93 63q-40 42 -60.5 98.5t-20.5 118.5t20.5 119t60.5 99q39 41 93 63t113 22q65 0 121 -35.5zM688 658l106 292h85l-128 -292h-63zM261.5 520q-38.5 -18 -66.5 -51
q-57 -68 -57 -177q0 -108 57 -176q28 -33 66.5 -51t81.5 -18t81.5 18t66.5 51q58 69 58 176q0 50 -14 96t-44 81q-28 33 -66.5 51t-81.5 18t-81.5 -18z" />
    <glyph glyph-name="ecaron" unicode="&#x11b;" horiz-adv-x="693" 
d="M299 712l-127 180h77l101 -119l102 119h77l-127 -180h-103zM562 61q-42 -36 -96.5 -53.5t-115.5 -17.5t-116 21.5t-95 63.5q-41 43 -62 99t-21 118t21 118.5t62 99.5q40 42 95 63.5t116 21.5t116.5 -21.5t95.5 -63.5q41 -43 62 -99.5t21 -118.5v-28h-506q8 -92 58 -148
q28 -33 68.5 -51t84.5 -18t84 13.5t70 41.5q24 22 39 53l65 -41q-18 -29 -46 -53zM504 469q-28 33 -69 51t-85 18t-84.5 -18t-68.5 -51q-50 -56 -58 -148h423q-8 92 -58 148z" />
    <glyph glyph-name="eogonek" unicode="&#x119;" horiz-adv-x="693" 
d="M391 -307.5q-35 -9.5 -73 -9.5q-78 0 -128 35q-23 16 -36.5 40t-13.5 50q0 31 18.5 50t57.5 44q38 23 56 42l45 48q-52 5 -98 26t-80 57q-41 43 -62 99t-21 118t21 118.5t62 99.5q40 42 95 63.5t116 21.5t116.5 -21.5t95.5 -63.5q41 -43 62 -99.5t21 -118.5v-28h-506
q8 -92 58 -148q28 -33 68.5 -51t84.5 -18t84 13.5t70 41.5q24 22 39 53l65 -41q-32 -54 -98 -87.5t-140 -36.5l-87 -91q-6 -6 -31 -27q-24 -19 -35 -32t-11 -32q0 -38 34.5 -59t77.5 -21q30 0 57 10t41 29l36 -45q-26 -20 -61 -29.5zM504 469q-28 33 -69 51t-85 18
t-84.5 -18t-68.5 -51q-50 -56 -58 -148h423q-8 92 -58 148z" />
    <glyph glyph-name="gbreve" unicode="&#x11f;" horiz-adv-x="714" 
d="M433 800.5q41 18.5 41 55.5h65q0 -27 -15 -50t-40 -39q-54 -35 -141 -35q-86 0 -140 35q-25 16 -40 39t-15 50h65q0 -37 41 -55.5t89 -18.5q49 0 90 18.5zM609.5 -163.5q-21.5 -46.5 -59.5 -78.5q-41 -35 -94.5 -51.5t-112.5 -16.5t-112 16.5t-94 51.5q-28 24 -46 53
l65 41q17 -33 39 -53q29 -26 67.5 -39t80.5 -13t80.5 13t67.5 39q28 25 43 60t15 74v192q-13 -24 -28 -42q-33 -40 -79.5 -61.5t-98.5 -21.5q-59 0 -112.5 21t-93.5 62q-40 42 -60.5 98t-20.5 117t20.5 116.5t60.5 97.5q40 41 93.5 62t112.5 21q52 0 98.5 -21.5t79.5 -61.5
q15 -18 28 -42v115h82v-652q0 -50 -21.5 -96.5zM261.5 520.5q-38.5 -17.5 -66.5 -49.5q-57 -67 -57 -173q0 -107 57 -174q28 -32 66.5 -49.5t81.5 -17.5t81.5 17.5t66.5 49.5q30 35 44 79.5t14 94.5q0 105 -58 173q-28 32 -66.5 49.5t-81.5 17.5t-81.5 -17.5z" />
    <glyph glyph-name="lacute" unicode="&#x13a;" horiz-adv-x="250" 
d="M79 1008l123 180h102l-149 -180h-76zM166 0h-82v950h82v-950z" />
    <glyph glyph-name="lcaron" unicode="&#x13e;" horiz-adv-x="250" 
d="M166 0h-82v950h82v-950zM223 658l105 292h85l-128 -292h-62z" />
    <glyph glyph-name="lslash" unicode="&#x142;" horiz-adv-x="322" 
d="M201 594l100 68v-89l-100 -67v-506h-81v451l-99 -68v89l99 67v411h81v-356z" />
    <glyph glyph-name="nacute" unicode="&#x144;" 
d="M278 712l122 180h102l-149 -180h-75zM166 503q12 17 28 31q35 31 80.5 46t95.5 15q45 0 86 -15.5t71 -45.5t45.5 -71t15.5 -86v-377h-81v377q0 71 -38 116q-18 22 -44 33.5t-55 11.5q-90 0 -147 -45q-27 -21 -42 -51.5t-15 -64.5v-377h-82v585h82v-82z" />
    <glyph glyph-name="ncaron" unicode="&#x148;" 
d="M285 712l-127 180h77l101 -119l102 119h77l-127 -180h-103zM166 503q12 17 28 31q35 31 80.5 46t95.5 15q45 0 86 -15.5t71 -45.5t45.5 -71t15.5 -86v-377h-81v377q0 71 -38 116q-18 22 -44 33.5t-55 11.5q-90 0 -147 -45q-27 -21 -42 -51.5t-15 -64.5v-377h-82v585h82
v-82z" />
    <glyph glyph-name="eng" unicode="&#x14b;" 
d="M482.5 -214.5q24.5 38.5 24.5 88.5v503q0 71 -38 116q-18 22 -44 33.5t-55 11.5q-90 0 -147 -45q-27 -21 -42 -51.5t-15 -64.5v-377h-82v585h82v-82q12 17 28 31q35 31 80.5 46t95.5 15q45 0 86 -15.5t71 -45.5t45.5 -71t15.5 -86v-503q0 -39 -12 -73.5t-36 -59.5
q-23 -25 -56.5 -38t-69.5 -13q-45 0 -84.5 21t-61.5 57l65 40q10 -26 32 -43.5t49 -17.5q44 0 68.5 38.5z" />
    <glyph glyph-name="ohungarumlaut" unicode="&#x151;" horiz-adv-x="700" 
d="M262 712h-74l113 180h99zM397 712l113 180h99l-138 -180h-74zM466.5 573.5q55.5 -21.5 95.5 -63.5q41 -43 62 -99.5t21 -118.5t-21 -118t-62 -99q-40 -42 -95.5 -63.5t-116.5 -21.5t-116 21.5t-95 63.5q-41 43 -62 99t-21 118t21 118.5t62 99.5q40 42 95 63.5t116 21.5
t116.5 -21.5zM265.5 520q-40.5 -18 -68.5 -51q-59 -69 -59 -177q0 -107 59 -176q28 -33 68.5 -51t84.5 -18t85 18t69 51q59 69 59 176q0 108 -59 177q-28 33 -69 51t-85 18t-84.5 -18z" />
    <glyph glyph-name="racute" unicode="&#x155;" horiz-adv-x="412" 
d="M213 712l122 180h102l-149 -180h-75zM234 570q42 25 91 25q48 0 94 -17l-22 -58q-33 18 -72 18q-33 0 -63.5 -14t-51.5 -39q-44 -52 -44 -137v-348h-82v585h82v-81q26 41 68 66z" />
    <glyph glyph-name="rcaron" unicode="&#x159;" horiz-adv-x="412" 
d="M220 712l-127 180h77l101 -119l102 119h77l-127 -180h-103zM234 570q42 25 91 25q48 0 94 -17l-22 -58q-33 18 -72 18q-33 0 -63.5 -14t-51.5 -39q-44 -52 -44 -137v-348h-82v585h82v-81q26 41 68 66z" />
    <glyph glyph-name="sacute" unicode="&#x15b;" horiz-adv-x="560" 
d="M221 712l123 180h102l-149 -180h-76zM365 516q-37 22 -85 22q-63 0 -100 -29q-18 -14 -27 -35t-9 -45q0 -37 24.5 -64.5t61.5 -32.5l137 -20q63 -9 107 -51.5t44 -100.5q0 -37 -16.5 -70t-46.5 -55q-63 -45 -175 -45q-104 0 -171 48q-40 29 -56 68l74 31q11 -43 55 -66.5
t98 -23.5q74 0 115 30q20 14 31 36t11 47q0 35 -22.5 62.5t-56.5 32.5l-137 20q-67 10 -113 52.5t-46 101.5q0 36 15 68.5t43 53.5q58 44 160 44q96 0 157 -46q30 -23 48 -60l-72 -33q-11 38 -48 60z" />
    <glyph glyph-name="scaron" unicode="&#x161;" horiz-adv-x="560" 
d="M228 712l-126 180h76l102 -119l102 119h76l-126 -180h-104zM365 516q-37 22 -85 22q-63 0 -100 -29q-18 -14 -27 -35t-9 -45q0 -37 24.5 -64.5t61.5 -32.5l137 -20q63 -9 107 -51.5t44 -100.5q0 -37 -16.5 -70t-46.5 -55q-63 -45 -175 -45q-104 0 -171 48q-40 29 -56 68
l74 31q11 -43 55 -66.5t98 -23.5q74 0 115 30q20 14 31 36t11 47q0 35 -22.5 62.5t-56.5 32.5l-137 20q-67 10 -113 52.5t-46 101.5q0 36 15 68.5t43 53.5q58 44 160 44q96 0 157 -46q30 -23 48 -60l-72 -33q-11 38 -48 60z" />
    <glyph glyph-name="scedilla" unicode="&#x15f;" horiz-adv-x="560" 
d="M358.5 -133.5q-34.5 20.5 -78.5 20.5h-60l23 105q-65 6 -117 35.5t-73 78.5l74 31q11 -43 55 -66.5t98 -23.5q74 0 115 30q20 14 31 36t11 47q0 35 -22.5 62.5t-56.5 32.5l-137 20q-67 10 -113 52.5t-46 101.5q0 36 15 68.5t43 53.5q58 44 160 44q96 0 157 -46
q30 -23 48 -60l-72 -33q-11 38 -48 60t-85 22q-63 0 -100 -29q-18 -14 -27 -35t-9 -45q0 -37 24.5 -64.5t61.5 -32.5l137 -20q63 -9 107 -51.5t44 -100.5q0 -37 -16.5 -70t-46.5 -55q-59 -42 -152 -45l-13 -57q42 -1 80.5 -15.5t63 -42.5t24.5 -67q0 -26 -13.5 -50
t-36.5 -40q-50 -35 -128 -35q-50 0 -94 17t-65 49l51 35q11 -27 41.5 -41.5t66.5 -14.5q44 0 78.5 21t34.5 59t-34.5 58.5z" />
    <glyph glyph-name="tcaron" unicode="&#x165;" horiz-adv-x="378" 
d="M148 950h82v-365h127v-57h-127v-528h-82v528h-128v57h128v365zM386 658l105 292h85l-128 -292h-62z" />
    <glyph glyph-name="uni0163" unicode="&#x163;" horiz-adv-x="378" 
d="M267 -133.5q-34 20.5 -78 20.5h-61l25 113h-5v528h-128v57h128v365h82v-365h127v-57h-127v-528h-16l-15 -67q42 -1 80.5 -15.5t63 -42.5t24.5 -67q0 -26 -13.5 -50t-36.5 -40q-50 -35 -128 -35q-50 0 -94 17t-65 49l51 35q11 -27 41.5 -41.5t66.5 -14.5q43 0 77.5 21
t34.5 59t-34 58.5z" />
    <glyph glyph-name="uhungarumlaut" unicode="&#x171;" 
d="M240 712h-74l113 180h99zM375 712l112 180h100l-138 -180h-74zM425 12.5q-46 -22.5 -97 -22.5q-110 0 -181 61q-34 29 -52.5 70.5t-18.5 86.5v377h82v-377q0 -34 12 -64t35 -52q24 -23 56 -34t67 -11t67 11t56 34q24 22 36 52t12 64v377h81v-585h-81v73
q-28 -38 -74 -60.5z" />
    <glyph glyph-name="uring" unicode="&#x16f;" 
d="M416 881q16 -15 24.5 -35.5t8.5 -43.5q0 -48 -33 -78q-35 -31 -88 -31q-52 0 -87 31q-34 31 -34 78q0 23 9 43.5t25 35.5q34 30 87 30q54 0 88 -30zM376 852.5q-19 20.5 -48 20.5t-48 -20.5t-19 -50.5t19 -50.5t48 -20.5t48 20.5t19 50.5t-19 50.5zM425 12.5
q-46 -22.5 -97 -22.5q-110 0 -181 61q-34 29 -52.5 70.5t-18.5 86.5v377h82v-377q0 -34 12 -64t35 -52q24 -23 56 -34t67 -11t67 11t56 34q24 22 36 52t12 64v377h81v-585h-81v73q-28 -38 -74 -60.5z" />
    <glyph glyph-name="ydieresis" unicode="&#xff;" horiz-adv-x="588" 
d="M129 831q16 16 40 16t40 -16t16 -40t-16 -40t-40 -16t-40 16t-16 40t16 40zM379.5 831q15.5 16 39.5 16t40 -16t16 -40t-16 -40t-40 -16t-39.5 16t-15.5 40t15.5 40zM514 585h66l-390 -885h-66l137 310l-253 575h89l209 -474z" />
    <glyph glyph-name="zacute" unicode="&#x17a;" horiz-adv-x="518" 
d="M200 712l123 180h102l-149 -180h-76zM484 576l-319 -519h319v-57h-450v9l319 519h-319v57h450v-9z" />
    <glyph glyph-name="zcaron" unicode="&#x17e;" horiz-adv-x="518" 
d="M207 712l-126 180h76l102 -119l102 119h76l-126 -180h-104zM484 576l-319 -519h319v-57h-450v9l319 519h-319v57h450v-9z" />
    <glyph glyph-name="zdotaccent" unicode="&#x17c;" horiz-adv-x="518" 
d="M219 831q16 16 40 16t40 -16t16 -40t-16 -40t-40 -16t-40 16t-16 40t16 40zM484 576l-319 -519h319v-57h-450v9l319 519h-319v57h450v-9z" />
    <glyph glyph-name="ij" unicode="&#x133;" horiz-adv-x="644" 
d="M132 832q16 16 40 16t40 -16t16 -40t-16 -40t-40 -16t-40 16t-16 40t16 40zM475 832q16 16 40 16t40 -16t16 -40t-16 -40t-40 -16t-40 16t-16 40t16 40zM126 0v585h82v-585h-82zM294 -235q29 -18 64 -18q53 0 87 35q17 18 25.5 42t8.5 50v711h81v-711q0 -38 -14.5 -73
t-41.5 -60q-28 -26 -66 -38.5t-80 -12.5q-51 0 -97 21t-72 57l62 44q14 -29 43 -47z" />
    <glyph glyph-name="sterling" unicode="&#xa3;" horiz-adv-x="672" 
d="M230.5 142q-20.5 -54 -58.5 -85h440v-57h-552v57q24 0 44.5 15.5t34.5 39.5q30 54 30 142v168h-109v56h109v174q0 114 62 186q30 34 72 53t88 19t87.5 -19t71.5 -53q23 -27 39 -64l-72 -30q-15 46 -48 77.5t-78 31.5q-30 0 -56.5 -15t-44.5 -41q-39 -56 -39 -145v-174
h275v-56h-275v-168q0 -58 -20.5 -112z" />
    <glyph glyph-name="Agrave" unicode="&#xc0;" horiz-adv-x="777" 
d="M372 967l-149 180h102l122 -180h-75zM763 0h-88l-100 244h-398l-100 -244h-63l370 900h9zM551 301l-175 427l-175 -427h350z" />
    <glyph glyph-name="Aacute" unicode="&#xc1;" horiz-adv-x="777" 
d="M330 967l122 180h102l-149 -180h-75zM763 0h-88l-100 244h-398l-100 -244h-63l370 900h9zM551 301l-175 427l-175 -427h350z" />
    <glyph glyph-name="Acircumflex" unicode="&#xc2;" horiz-adv-x="777" 
d="M337 1147h103l127 -180h-77l-101 120l-102 -120h-77zM763 0h-88l-100 244h-398l-100 -244h-63l370 900h9zM551 301l-175 427l-175 -427h350z" />
    <glyph glyph-name="Atilde" unicode="&#xc3;" horiz-adv-x="777" 
d="M277 1025q-19 -22 -19 -53h-65q0 26 9.5 50t27.5 41q38 35 96 35q17 0 31 -8t32 -23q20 -16 33 -23.5t29 -7.5q30 0 49 22t19 53h65q0 -26 -9.5 -49.5t-27.5 -40.5q-19 -18 -44 -27t-52 -9q-16 0 -29 7.5t-33 23.5q-18 15 -32 23t-31 8q-30 0 -49 -22zM763 0h-88
l-100 244h-398l-100 -244h-63l370 900h9zM551 301l-175 427l-175 -427h350z" />
    <glyph glyph-name="Adieresis" unicode="&#xc4;" horiz-adv-x="777" 
d="M223 1086.5q16 15.5 40 15.5t40 -15.5t16 -39.5t-16 -40t-40 -16t-40 16t-16 40t16 39.5zM474 1086.5q16 15.5 40 15.5t40 -15.5t16 -39.5t-16 -40t-40 -16t-40 16t-16 40t16 39.5zM763 0h-88l-100 244h-398l-100 -244h-63l370 900h9zM551 301l-175 427l-175 -427h350z
" />
    <glyph glyph-name="Aring" unicode="&#xc5;" horiz-adv-x="777" 
d="M476 1136q16 -15 25 -35.5t9 -43.5q0 -47 -34 -78q-35 -31 -87 -31q-53 0 -88 31q-34 31 -34 78q0 23 9 43.5t25 35.5q34 30 88 30q53 0 87 -30zM436.5 1107.5q-18.5 20.5 -47.5 20.5t-48 -20.5t-19 -50.5t19 -50.5t48 -20.5t47.5 20.5t18.5 50.5t-18.5 50.5zM763 0h-88
l-100 244h-398l-100 -244h-63l370 900h9zM551 301l-175 427l-175 -427h350z" />
    <glyph glyph-name="AE" unicode="&#xc6;" horiz-adv-x="1127" 
d="M1078 843h-435v-365h403v-56h-403v-365h435v-57h-517v309h-306v3l-176 -312h-65l507 900h557v-57zM285 366h276v490z" />
    <glyph glyph-name="Ccedilla" unicode="&#xc7;" horiz-adv-x="945" 
d="M568.5 -133.5q-34.5 20.5 -78.5 20.5h-60l23 105q-78 6 -148 38.5t-123 88.5q-60 65 -90 150.5t-30 180.5t30 180.5t90 150.5q58 63 139 96t169 33t169 -33t139 -96q42 -45 73 -110l-70 -32q-21 52 -62 101q-46 54 -111.5 83.5t-137.5 29.5t-137.5 -29.5t-111.5 -83.5
q-50 -58 -73.5 -132.5t-23.5 -157.5t23.5 -157.5t73.5 -132.5q46 -54 111.5 -83.5t137.5 -29.5t137.5 29.5t111.5 83.5q41 49 62 101l70 -32q-31 -65 -73 -110q-55 -59 -129 -91.5t-156 -36.5l-13 -58q42 -1 80.5 -15.5t63 -42.5t24.5 -67q0 -26 -13.5 -50t-36.5 -40
q-50 -35 -128 -35q-50 0 -94 17t-65 49l51 35q11 -27 41.5 -41.5t66.5 -14.5q44 0 78.5 21t34.5 59t-34.5 58.5z" />
    <glyph glyph-name="Egrave" unicode="&#xc8;" horiz-adv-x="651" 
d="M333 967l-149 180h103l122 -180h-76zM602 843h-422v-365h382v-56h-382v-365h422v-57h-504v900h504v-57z" />
    <glyph glyph-name="Eacute" unicode="&#xc9;" horiz-adv-x="651" 
d="M292 967l122 180h102l-149 -180h-75zM602 843h-422v-365h382v-56h-382v-365h422v-57h-504v900h504v-57z" />
    <glyph glyph-name="Ecircumflex" unicode="&#xca;" horiz-adv-x="651" 
d="M299 1147h103l127 -180h-77l-102 120l-101 -120h-77zM602 843h-422v-365h382v-56h-382v-365h422v-57h-504v900h504v-57z" />
    <glyph glyph-name="Edieresis" unicode="&#xcb;" horiz-adv-x="651" 
d="M185 1086.5q16 15.5 40 15.5t40 -15.5t16 -39.5t-16 -40t-40 -16t-40 16t-16 40t16 39.5zM436 1086.5q16 15.5 40 15.5t40 -15.5t16 -39.5t-16 -40t-40 -16t-40 16t-16 40t16 39.5zM602 843h-422v-365h382v-56h-382v-365h422v-57h-504v900h504v-57z" />
    <glyph glyph-name="Igrave" unicode="&#xcc;" horiz-adv-x="306" 
d="M136 967l-149 180h102l122 -180h-75zM194 0h-82v900h82v-900z" />
    <glyph glyph-name="Iacute" unicode="&#xcd;" horiz-adv-x="306" 
d="M94 967l122 180h102l-148 -180h-76zM194 0h-82v900h82v-900z" />
    <glyph glyph-name="Icircumflex" unicode="&#xce;" horiz-adv-x="306" 
d="M101 1147h103l127 -180h-77l-101 120l-102 -120h-77zM194 0h-82v900h82v-900z" />
    <glyph glyph-name="Idieresis" unicode="&#xcf;" horiz-adv-x="306" 
d="M-13 1086.5q16 15.5 40 15.5t40 -15.5t16 -39.5t-16 -40t-40 -16t-40 16t-16 40t16 39.5zM238 1086.5q16 15.5 40 15.5t40 -15.5t16 -39.5t-16 -40t-40 -16t-40 16t-16 40t16 39.5zM194 0h-82v900h82v-900z" />
    <glyph glyph-name="Eth" unicode="&#xd0;" horiz-adv-x="938" 
d="M50 422v56h104v422h275q91 0 173.5 -32t142.5 -94q61 -63 92 -147t31 -177t-31 -177t-92 -147q-60 -62 -142.5 -94t-173.5 -32h-275v422h-104zM570 85.5q67 28.5 116 81.5q51 56 75.5 129t24.5 154t-24.5 154t-75.5 129q-49 53 -116 81.5t-141 28.5h-193v-365h275v-56
h-275v-365h193q74 0 141 28.5z" />
    <glyph glyph-name="Ntilde" unicode="&#xd1;" horiz-adv-x="875" 
d="M326 1025q-19 -22 -19 -53h-65q0 26 9.5 50t27.5 41q38 35 96 35q17 0 31 -8t32 -23q20 -16 33 -23.5t29 -7.5q30 0 49 21.5t19 53.5h65q0 -26 -9.5 -49.5t-27.5 -40.5q-19 -18 -44 -27t-52 -9q-16 0 -29 7.5t-33 23.5q-18 15 -32 23t-31 8q-30 0 -49 -22zM696 183v717
h81v-900h-9l-588 717v-717h-82v900h9z" />
    <glyph glyph-name="Ograve" unicode="&#xd2;" horiz-adv-x="980" 
d="M473 967l-149 180h102l123 -180h-76zM659 877q81 -33 139 -96q60 -65 90 -150.5t30 -180.5t-30 -180.5t-90 -150.5q-58 -63 -139 -96t-169 -33t-169 33t-139 96q-60 65 -90 150.5t-30 180.5t30 180.5t90 150.5q58 63 139 96t169 33t169 -33zM352.5 823.5
q-65.5 -29.5 -111.5 -83.5q-50 -58 -73.5 -132.5t-23.5 -157.5t23.5 -157.5t73.5 -132.5q46 -54 111.5 -83.5t137.5 -29.5t137.5 29.5t111.5 83.5q50 58 73.5 132.5t23.5 157.5t-23.5 157.5t-73.5 132.5q-46 54 -111.5 83.5t-137.5 29.5t-137.5 -29.5z" />
    <glyph glyph-name="Oacute" unicode="&#xd3;" horiz-adv-x="980" 
d="M431 967l123 180h102l-149 -180h-76zM659 877q81 -33 139 -96q60 -65 90 -150.5t30 -180.5t-30 -180.5t-90 -150.5q-58 -63 -139 -96t-169 -33t-169 33t-139 96q-60 65 -90 150.5t-30 180.5t30 180.5t90 150.5q58 63 139 96t169 33t169 -33zM352.5 823.5
q-65.5 -29.5 -111.5 -83.5q-50 -58 -73.5 -132.5t-23.5 -157.5t23.5 -157.5t73.5 -132.5q46 -54 111.5 -83.5t137.5 -29.5t137.5 29.5t111.5 83.5q50 58 73.5 132.5t23.5 157.5t-23.5 157.5t-73.5 132.5q-46 54 -111.5 83.5t-137.5 29.5t-137.5 -29.5z" />
    <glyph glyph-name="Ocircumflex" unicode="&#xd4;" horiz-adv-x="980" 
d="M438 1147h104l126 -180h-76l-102 120l-102 -120h-76zM659 877q81 -33 139 -96q60 -65 90 -150.5t30 -180.5t-30 -180.5t-90 -150.5q-58 -63 -139 -96t-169 -33t-169 33t-139 96q-60 65 -90 150.5t-30 180.5t30 180.5t90 150.5q58 63 139 96t169 33t169 -33zM352.5 823.5
q-65.5 -29.5 -111.5 -83.5q-50 -58 -73.5 -132.5t-23.5 -157.5t23.5 -157.5t73.5 -132.5q46 -54 111.5 -83.5t137.5 -29.5t137.5 29.5t111.5 83.5q50 58 73.5 132.5t23.5 157.5t-23.5 157.5t-73.5 132.5q-46 54 -111.5 83.5t-137.5 29.5t-137.5 -29.5z" />
    <glyph glyph-name="Otilde" unicode="&#xd5;" horiz-adv-x="980" 
d="M378.5 1025q-18.5 -22 -18.5 -53h-66q0 26 10 50t28 41q38 35 95 35q17 0 31 -8t32 -23q19 -15 33 -23t30 -8q30 0 48.5 22t18.5 53h66q0 -26 -10 -49.5t-28 -40.5q-39 -36 -95 -36q-16 0 -30 8t-33 23q-18 15 -32 23t-31 8q-30 0 -48.5 -22zM659 877q81 -33 139 -96
q60 -65 90 -150.5t30 -180.5t-30 -180.5t-90 -150.5q-58 -63 -139 -96t-169 -33t-169 33t-139 96q-60 65 -90 150.5t-30 180.5t30 180.5t90 150.5q58 63 139 96t169 33t169 -33zM352.5 823.5q-65.5 -29.5 -111.5 -83.5q-50 -58 -73.5 -132.5t-23.5 -157.5t23.5 -157.5
t73.5 -132.5q46 -54 111.5 -83.5t137.5 -29.5t137.5 29.5t111.5 83.5q50 58 73.5 132.5t23.5 157.5t-23.5 157.5t-73.5 132.5q-46 54 -111.5 83.5t-137.5 29.5t-137.5 -29.5z" />
    <glyph glyph-name="Odieresis" unicode="&#xd6;" horiz-adv-x="980" 
d="M325 1086.5q16 15.5 40 15.5t40 -15.5t16 -39.5t-16 -40t-40 -16t-40 16t-16 40t16 39.5zM575 1086.5q16 15.5 40 15.5t40 -15.5t16 -39.5t-16 -40t-40 -16t-40 16t-16 40t16 39.5zM659 877q81 -33 139 -96q60 -65 90 -150.5t30 -180.5t-30 -180.5t-90 -150.5
q-58 -63 -139 -96t-169 -33t-169 33t-139 96q-60 65 -90 150.5t-30 180.5t30 180.5t90 150.5q58 63 139 96t169 33t169 -33zM352.5 823.5q-65.5 -29.5 -111.5 -83.5q-50 -58 -73.5 -132.5t-23.5 -157.5t23.5 -157.5t73.5 -132.5q46 -54 111.5 -83.5t137.5 -29.5t137.5 29.5
t111.5 83.5q50 58 73.5 132.5t23.5 157.5t-23.5 157.5t-73.5 132.5q-46 54 -111.5 83.5t-137.5 29.5t-137.5 -29.5z" />
    <glyph glyph-name="OE" unicode="&#x152;" horiz-adv-x="1176" 
d="M581.5 876q70.5 -34 119.5 -95q8 -10 22 -30v149h406v-57h-325v-365h284v-56h-284v-365h325v-57h-406v149q-14 -20 -22 -30q-49 -61 -119.5 -95t-148.5 -34t-148 34t-119 95q-54 67 -79 152t-25 179t25 179t79 152q49 61 119 95t148 34t148.5 -34zM317 822.5
q-54 -30.5 -92 -82.5q-81 -113 -81 -290t81 -290q38 -52 92 -82.5t116 -30.5t116.5 30.5t92.5 82.5q81 113 81 290t-81 290q-38 52 -92.5 82.5t-116.5 30.5t-116 -30.5z" />
    <glyph glyph-name="Oslash" unicode="&#xd8;" horiz-adv-x="980" 
d="M640 884.5q72 -25.5 128 -74.5l81 90h97l-128 -142q50 -63 75 -142t25 -166q0 -95 -30 -180.5t-90 -150.5q-58 -63 -139 -96t-169 -33q-78 0 -150 25.5t-128 74.5l-81 -90h-97l128 142q-50 63 -75 142t-25 166q0 95 30 180.5t90 150.5q58 63 139 96t169 33
q78 0 150 -25.5zM352.5 823.5q-65.5 -29.5 -111.5 -83.5q-50 -58 -73.5 -132.5t-23.5 -157.5q0 -147 69 -253l509 562q-45 45 -105.5 69.5t-126.5 24.5q-72 0 -137.5 -29.5zM363.5 71.5q60.5 -24.5 126.5 -24.5q72 0 137.5 29.5t111.5 83.5q50 58 73.5 132.5t23.5 157.5
q0 147 -69 253l-509 -562q45 -45 105.5 -69.5z" />
    <glyph glyph-name="Ugrave" unicode="&#xd9;" horiz-adv-x="832" 
d="M399 967l-149 180h102l122 -180h-75zM714 162.5q-23 -54.5 -67 -92.5q-46 -41 -105.5 -60.5t-125.5 -19.5t-126 20t-106 60q-44 38 -67 92.5t-23 114.5v623h82v-623q0 -48 17 -91t50 -75t78 -48t95 -16t94 16t78 48q33 32 50.5 75.5t17.5 90.5v623h81v-623
q0 -60 -23 -114.5z" />
    <glyph glyph-name="Uacute" unicode="&#xda;" horiz-adv-x="832" 
d="M357 967l122 180h103l-149 -180h-76zM714 162.5q-23 -54.5 -67 -92.5q-46 -41 -105.5 -60.5t-125.5 -19.5t-126 20t-106 60q-44 38 -67 92.5t-23 114.5v623h82v-623q0 -48 17 -91t50 -75t78 -48t95 -16t94 16t78 48q33 32 50.5 75.5t17.5 90.5v623h81v-623
q0 -60 -23 -114.5z" />
    <glyph glyph-name="Ucircumflex" unicode="&#xdb;" horiz-adv-x="832" 
d="M364 1147h103l127 -180h-77l-101 120l-102 -120h-77zM714 162.5q-23 -54.5 -67 -92.5q-46 -41 -105.5 -60.5t-125.5 -19.5t-126 20t-106 60q-44 38 -67 92.5t-23 114.5v623h82v-623q0 -48 17 -91t50 -75t78 -48t95 -16t94 16t78 48q33 32 50.5 75.5t17.5 90.5v623h81
v-623q0 -60 -23 -114.5z" />
    <glyph glyph-name="Udieresis" unicode="&#xdc;" horiz-adv-x="832" 
d="M250 1086.5q16 15.5 40 15.5t40 -15.5t16 -39.5t-16 -40t-40 -16t-40 16t-16 40t16 39.5zM501 1086.5q16 15.5 40 15.5t40 -15.5t16 -39.5t-16 -40t-40 -16t-40 16t-16 40t16 39.5zM714 162.5q-23 -54.5 -67 -92.5q-46 -41 -105.5 -60.5t-125.5 -19.5t-126 20t-106 60
q-44 38 -67 92.5t-23 114.5v623h82v-623q0 -48 17 -91t50 -75t78 -48t95 -16t94 16t78 48q33 32 50.5 75.5t17.5 90.5v623h81v-623q0 -60 -23 -114.5z" />
    <glyph glyph-name="Yacute" unicode="&#xdd;" horiz-adv-x="728" 
d="M306 967l122 180h102l-149 -180h-75zM652 900h69l-316 -553v-347h-81v347l-316 553h93l276 -483z" />
    <glyph glyph-name="Thorn" unicode="&#xde;" horiz-adv-x="728" 
d="M180 748h185q137 0 222 -70q41 -34 63.5 -82t22.5 -101t-22.5 -101t-63.5 -82q-85 -70 -222 -70h-185v-242h-82v900h82v-152zM453 312q42 14 75 42q30 26 46.5 63t16.5 78t-16.5 78t-46.5 63q-33 28 -75 42t-88 14h-185v-394h185q46 0 88 14z" />
    <glyph glyph-name="uni1E9E" unicode="&#x1e9e;" horiz-adv-x="1358" 
d="M198 102q30 -28 71 -41.5t85 -13.5q102 0 159 52q29 26 43 63.5t14 79.5q0 58 -32.5 103.5t-85.5 61.5l-185 34q-82 24 -136.5 85t-54.5 140q0 53 18.5 99.5t55.5 79.5q73 65 204 65q57 0 108.5 -16.5t91.5 -51.5q37 -33 55 -73l-71 -34q-14 38 -43 66q-28 26 -64.5 39
t-76.5 13q-91 0 -144 -50q-27 -25 -39.5 -61t-12.5 -76q0 -59 35 -105.5t91 -62.5l185 -34q79 -23 131 -83.5t52 -138.5q0 -55 -20 -103.5t-59 -81.5q-79 -67 -219 -67q-62 0 -117.5 17t-97.5 53q-41 34 -64 89l73 30q16 -47 50 -77zM842 102q31 -28 71 -41.5t84 -13.5
q102 0 159 52q29 26 43.5 63.5t14.5 79.5q0 58 -32.5 103.5t-85.5 61.5l-185 34q-82 24 -136.5 85t-54.5 140q0 53 18 99.5t55 79.5q73 65 204 65q57 0 108.5 -16.5t91.5 -51.5q37 -33 55 -73l-70 -34q-14 38 -43 66q-28 26 -64.5 39t-77.5 13q-91 0 -144 -50
q-27 -25 -39.5 -61t-12.5 -76q0 -59 35 -105.5t91 -62.5l185 -34q80 -23 131.5 -83.5t51.5 -138.5q0 -55 -20 -103.5t-59 -81.5q-79 -67 -219 -67q-131 0 -214 70q-43 36 -65 89l73 30q15 -46 51 -77z" />
    <glyph glyph-name="agrave" unicode="&#xe0;" horiz-adv-x="658" 
d="M298 712l-149 180h102l123 -180h-76zM416 341q48 -19 77 -54v73q0 37 -12.5 70t-37.5 58t-58 37.5t-70 12.5t-70 -12.5t-58 -37.5q-16 -16 -29 -40l-63 42q16 22 34 39q37 33 85 49.5t101 16.5t101.5 -16.5t85.5 -49.5q35 -32 53.5 -76t18.5 -93v-360h-81v62
q-29 -34 -77 -53t-101 -19q-112 0 -186 52q-34 24 -53.5 59t-19.5 74t19.5 74t53.5 59q74 52 186 52q53 0 101 -19zM187 267q-23 -17 -36 -41t-13 -51t13 -51t36 -41q51 -36 128 -36t128 36q23 17 36.5 41t13.5 51t-13.5 51t-36.5 41q-51 36 -128 36t-128 -36z" />
    <glyph glyph-name="aacute" unicode="&#xe1;" horiz-adv-x="658" 
d="M257 712l122 180h102l-149 -180h-75zM416 341q48 -19 77 -54v73q0 37 -12.5 70t-37.5 58t-58 37.5t-70 12.5t-70 -12.5t-58 -37.5q-16 -16 -29 -40l-63 42q16 22 34 39q37 33 85 49.5t101 16.5t101.5 -16.5t85.5 -49.5q35 -32 53.5 -76t18.5 -93v-360h-81v62
q-29 -34 -77 -53t-101 -19q-112 0 -186 52q-34 24 -53.5 59t-19.5 74t19.5 74t53.5 59q74 52 186 52q53 0 101 -19zM187 267q-23 -17 -36 -41t-13 -51t13 -51t36 -41q51 -36 128 -36t128 36q23 17 36.5 41t13.5 51t-13.5 51t-36.5 41q-51 36 -128 36t-128 -36z" />
    <glyph glyph-name="acircumflex" unicode="&#xe2;" horiz-adv-x="658" 
d="M264 892h103l127 -180h-77l-102 120l-102 -120h-76zM416 341q48 -19 77 -54v73q0 37 -12.5 70t-37.5 58t-58 37.5t-70 12.5t-70 -12.5t-58 -37.5q-16 -16 -29 -40l-63 42q16 22 34 39q37 33 85 49.5t101 16.5t101.5 -16.5t85.5 -49.5q35 -32 53.5 -76t18.5 -93v-360h-81
v62q-29 -34 -77 -53t-101 -19q-112 0 -186 52q-34 24 -53.5 59t-19.5 74t19.5 74t53.5 59q74 52 186 52q53 0 101 -19zM187 267q-23 -17 -36 -41t-13 -51t13 -51t36 -41q51 -36 128 -36t128 36q23 17 36.5 41t13.5 51t-13.5 51t-36.5 41q-51 36 -128 36t-128 -36z" />
    <glyph glyph-name="atilde" unicode="&#xe3;" horiz-adv-x="658" 
d="M204 770q-19 -22 -19 -53h-65q0 26 9.5 49.5t27.5 40.5q19 18 44 27t52 9q17 0 31 -8t32 -23q20 -16 33 -23.5t29 -7.5q30 0 49 22t19 53h65q0 -26 -9.5 -50t-27.5 -41q-38 -35 -96 -35q-16 0 -29 7.5t-33 23.5q-18 15 -32 23t-31 8q-30 0 -49 -22zM416 341
q48 -19 77 -54v73q0 37 -12.5 70t-37.5 58t-58 37.5t-70 12.5t-70 -12.5t-58 -37.5q-16 -16 -29 -40l-63 42q16 22 34 39q37 33 85 49.5t101 16.5t101.5 -16.5t85.5 -49.5q35 -32 53.5 -76t18.5 -93v-360h-81v62q-29 -34 -77 -53t-101 -19q-112 0 -186 52q-34 24 -53.5 59
t-19.5 74t19.5 74t53.5 59q74 52 186 52q53 0 101 -19zM187 267q-23 -17 -36 -41t-13 -51t13 -51t36 -41q51 -36 128 -36t128 36q23 17 36.5 41t13.5 51t-13.5 51t-36.5 41q-51 36 -128 36t-128 -36z" />
    <glyph glyph-name="adieresis" unicode="&#xe4;" horiz-adv-x="658" 
d="M150 831q16 16 40 16t40 -16t16 -40t-16 -40t-40 -16t-40 16t-16 40t16 40zM401 831q16 16 40 16t39.5 -16t15.5 -40t-15.5 -40t-39.5 -16t-40 16t-16 40t16 40zM416 341q48 -19 77 -54v73q0 37 -12.5 70t-37.5 58t-58 37.5t-70 12.5t-70 -12.5t-58 -37.5
q-16 -16 -29 -40l-63 42q16 22 34 39q37 33 85 49.5t101 16.5t101.5 -16.5t85.5 -49.5q35 -32 53.5 -76t18.5 -93v-360h-81v62q-29 -34 -77 -53t-101 -19q-112 0 -186 52q-34 24 -53.5 59t-19.5 74t19.5 74t53.5 59q74 52 186 52q53 0 101 -19zM187 267q-23 -17 -36 -41
t-13 -51t13 -51t36 -41q51 -36 128 -36t128 36q23 17 36.5 41t13.5 51t-13.5 51t-36.5 41q-51 36 -128 36t-128 -36z" />
    <glyph glyph-name="aring" unicode="&#xe5;" horiz-adv-x="658" 
d="M402 881q16 -15 25 -35.5t9 -43.5q0 -47 -34 -78q-35 -31 -87 -31t-87 31q-34 31 -34 78q0 23 9 43.5t25 35.5q34 30 87 30t87 -30zM363 852.5q-19 20.5 -48 20.5t-48 -20.5t-19 -50.5t19 -50.5t48 -20.5t48 20.5t19 50.5t-19 50.5zM416 341q48 -19 77 -54v73
q0 37 -12.5 70t-37.5 58t-58 37.5t-70 12.5t-70 -12.5t-58 -37.5q-16 -16 -29 -40l-63 42q16 22 34 39q37 33 85 49.5t101 16.5t101.5 -16.5t85.5 -49.5q35 -32 53.5 -76t18.5 -93v-360h-81v62q-29 -34 -77 -53t-101 -19q-112 0 -186 52q-34 24 -53.5 59t-19.5 74t19.5 74
t53.5 59q74 52 186 52q53 0 101 -19zM187 267q-23 -17 -36 -41t-13 -51t13 -51t36 -41q51 -36 128 -36t128 36q23 17 36.5 41t13.5 51t-13.5 51t-36.5 41q-51 36 -128 36t-128 -36z" />
    <glyph glyph-name="ae" unicode="&#xe6;" horiz-adv-x="1036" 
d="M390.5 342q42.5 -18 69.5 -50v68q0 78 -44 128q-22 24 -52 37t-62 13t-62 -13t-52 -37q-15 -18 -25 -38l-65 40q14 22 31 39q34 33 78.5 49.5t94.5 16.5q49 0 93.5 -16.5t78.5 -49.5q22 -22 37 -49q7 10 23 30q36 41 85.5 63t104.5 22t104.5 -22t85.5 -63
q38 -43 56 -99.5t18 -118.5v-28h-446q7 -90 50 -148q24 -32 58.5 -50.5t73.5 -18.5q38 0 72 14t59 41q21 22 33 50l67 -38q-17 -29 -41 -53q-37 -36 -86.5 -53.5t-103.5 -17.5q-61 0 -115.5 27.5t-89.5 75.5q-15 -28 -45 -51q-67 -52 -172 -52q-106 0 -173 52q-31 24 -49 59
t-18 74t18 74t49 59q67 52 173 52q46 0 88.5 -18zM855 469q-24 32 -58.5 50.5t-72.5 18.5q-39 0 -73.5 -18.5t-58.5 -50.5q-43 -58 -50 -148h364q-7 88 -51 148zM188 267q-21 -16 -32.5 -40.5t-11.5 -51.5t11.5 -51.5t32.5 -40.5q44 -36 114 -36t114 36q21 16 32.5 40.5
t11.5 51.5t-11.5 51.5t-32.5 40.5q-44 36 -114 36t-114 -36z" />
    <glyph glyph-name="ccedilla" unicode="&#xe7;" horiz-adv-x="669" 
d="M428.5 -133.5q-34.5 20.5 -78.5 20.5h-60l23 105q-50 5 -94.5 26t-79.5 57q-41 43 -62 99t-21 118t21 118.5t62 99.5q40 42 95 63.5t116 21.5t116.5 -21.5t95.5 -63.5q35 -35 56 -83l-72 -31q-16 43 -42 73q-28 33 -69 51t-85 18t-84.5 -18t-68.5 -51q-59 -69 -59 -177
q0 -107 59 -176q28 -33 68.5 -51t84.5 -18t85 18t69 51q26 30 42 73l72 -31q-21 -48 -56 -83q-37 -38 -86 -59t-103 -25l-13 -58q42 -1 80.5 -15.5t63 -42.5t24.5 -67q0 -26 -13.5 -50t-36.5 -40q-50 -35 -128 -35q-50 0 -94 17t-65 49l51 35q11 -27 41.5 -41.5t66.5 -14.5
q44 0 78.5 21t34.5 59t-34.5 58.5z" />
    <glyph glyph-name="egrave" unicode="&#xe8;" horiz-adv-x="693" 
d="M333 712l-149 180h103l122 -180h-76zM562 61q-42 -36 -96.5 -53.5t-115.5 -17.5t-116 21.5t-95 63.5q-41 43 -62 99t-21 118t21 118.5t62 99.5q40 42 95 63.5t116 21.5t116.5 -21.5t95.5 -63.5q41 -43 62 -99.5t21 -118.5v-28h-506q8 -92 58 -148q28 -33 68.5 -51
t84.5 -18t84 13.5t70 41.5q24 22 39 53l65 -41q-18 -29 -46 -53zM504 469q-28 33 -69 51t-85 18t-84.5 -18t-68.5 -51q-50 -56 -58 -148h423q-8 92 -58 148z" />
    <glyph glyph-name="eacute" unicode="&#xe9;" horiz-adv-x="693" 
d="M292 712l122 180h102l-149 -180h-75zM562 61q-42 -36 -96.5 -53.5t-115.5 -17.5t-116 21.5t-95 63.5q-41 43 -62 99t-21 118t21 118.5t62 99.5q40 42 95 63.5t116 21.5t116.5 -21.5t95.5 -63.5q41 -43 62 -99.5t21 -118.5v-28h-506q8 -92 58 -148q28 -33 68.5 -51
t84.5 -18t84 13.5t70 41.5q24 22 39 53l65 -41q-18 -29 -46 -53zM504 469q-28 33 -69 51t-85 18t-84.5 -18t-68.5 -51q-50 -56 -58 -148h423q-8 92 -58 148z" />
    <glyph glyph-name="ecircumflex" unicode="&#xea;" horiz-adv-x="693" 
d="M299 892h103l127 -180h-77l-102 120l-101 -120h-77zM562 61q-42 -36 -96.5 -53.5t-115.5 -17.5t-116 21.5t-95 63.5q-41 43 -62 99t-21 118t21 118.5t62 99.5q40 42 95 63.5t116 21.5t116.5 -21.5t95.5 -63.5q41 -43 62 -99.5t21 -118.5v-28h-506q8 -92 58 -148
q28 -33 68.5 -51t84.5 -18t84 13.5t70 41.5q24 22 39 53l65 -41q-18 -29 -46 -53zM504 469q-28 33 -69 51t-85 18t-84.5 -18t-68.5 -51q-50 -56 -58 -148h423q-8 92 -58 148z" />
    <glyph glyph-name="edieresis" unicode="&#xeb;" horiz-adv-x="693" 
d="M185 831q16 16 40 16t40 -16t16 -40t-16 -40t-40 -16t-40 16t-16 40t16 40zM436 831q16 16 40 16t40 -16t16 -40t-16 -40t-40 -16t-40 16t-16 40t16 40zM562 61q-42 -36 -96.5 -53.5t-115.5 -17.5t-116 21.5t-95 63.5q-41 43 -62 99t-21 118t21 118.5t62 99.5
q40 42 95 63.5t116 21.5t116.5 -21.5t95.5 -63.5q41 -43 62 -99.5t21 -118.5v-28h-506q8 -92 58 -148q28 -33 68.5 -51t84.5 -18t84 13.5t70 41.5q24 22 39 53l65 -41q-18 -29 -46 -53zM504 469q-28 33 -69 51t-85 18t-84.5 -18t-68.5 -51q-50 -56 -58 -148h423
q-8 92 -58 148z" />
    <glyph glyph-name="igrave" unicode="&#xec;" horiz-adv-x="266" 
d="M116 712l-149 180h102l122 -180h-75zM173 0h-81v585h81v-585z" />
    <glyph glyph-name="iacute" unicode="&#xed;" horiz-adv-x="266" 
d="M74 712l122 180h102l-149 -180h-75zM173 0h-81v585h81v-585z" />
    <glyph glyph-name="icircumflex" unicode="&#xee;" horiz-adv-x="266" 
d="M81 892h103l127 -180h-77l-101 120l-102 -120h-77zM173 0h-81v585h81v-585z" />
    <glyph glyph-name="idieresis" unicode="&#xef;" horiz-adv-x="266" 
d="M-33 831q16 16 40 16t40 -16t16 -40t-16 -40t-40 -16t-40 16t-16 40t16 40zM218 831q16 16 40 16t40 -16t16 -40t-16 -40t-40 -16t-40 16t-16 40t16 40zM173 0h-81v585h81v-585z" />
    <glyph glyph-name="eth" unicode="&#xf0;" horiz-adv-x="735" 
d="M220 950h113q77 -57 137 -128l190 63v-60l-153 -50q76 -104 117 -228t41 -255q0 -62 -21.5 -118.5t-63.5 -98.5q-43 -42 -100.5 -63.5t-119.5 -21.5t-119 21.5t-100 63.5q-42 42 -63.5 98.5t-21.5 118.5t21.5 119t63.5 99q43 42 100 63.5t119 21.5q56 0 107 -23t86 -65
q-38 135 -119 244l-206 -69v61l168 55q-78 91 -176 152zM567.5 388.5q-15.5 45.5 -46.5 80.5q-30 33 -72.5 51t-88.5 18t-88 -18t-72 -51q-31 -35 -46.5 -80.5t-15.5 -96.5q0 -50 15.5 -95.5t46.5 -80.5q30 -33 72 -51t88 -18t88.5 18t72.5 51q31 35 46.5 80.5t15.5 95.5
q0 51 -15.5 96.5z" />
    <glyph glyph-name="ntilde" unicode="&#xf1;" 
d="M225 770q-19 -22 -19 -53h-65q0 26 9.5 49.5t27.5 40.5q19 18 44 27t52 9q17 0 31 -8t32 -23q20 -16 33 -23.5t29 -7.5q30 0 49 21.5t19 53.5h65q0 -26 -9.5 -50t-27.5 -41q-38 -35 -96 -35q-16 0 -29 7.5t-33 23.5q-18 15 -32 23t-31 8q-30 0 -49 -22zM166 503
q12 17 28 31q35 31 80.5 46t95.5 15q45 0 86 -15.5t71 -45.5t45.5 -71t15.5 -86v-377h-81v377q0 71 -38 116q-18 22 -44 33.5t-55 11.5q-90 0 -147 -45q-27 -21 -42 -51.5t-15 -64.5v-377h-82v585h82v-82z" />
    <glyph glyph-name="ograve" unicode="&#xf2;" horiz-adv-x="700" 
d="M333 712l-149 180h103l122 -180h-76zM466.5 573.5q55.5 -21.5 95.5 -63.5q41 -43 62 -99.5t21 -118.5t-21 -118t-62 -99q-40 -42 -95.5 -63.5t-116.5 -21.5t-116 21.5t-95 63.5q-41 43 -62 99t-21 118t21 118.5t62 99.5q40 42 95 63.5t116 21.5t116.5 -21.5zM265.5 520
q-40.5 -18 -68.5 -51q-59 -69 -59 -177q0 -107 59 -176q28 -33 68.5 -51t84.5 -18t85 18t69 51q59 69 59 176q0 108 -59 177q-28 33 -69 51t-85 18t-84.5 -18z" />
    <glyph glyph-name="oacute" unicode="&#xf3;" horiz-adv-x="700" 
d="M292 712l122 180h102l-149 -180h-75zM466.5 573.5q55.5 -21.5 95.5 -63.5q41 -43 62 -99.5t21 -118.5t-21 -118t-62 -99q-40 -42 -95.5 -63.5t-116.5 -21.5t-116 21.5t-95 63.5q-41 43 -62 99t-21 118t21 118.5t62 99.5q40 42 95 63.5t116 21.5t116.5 -21.5zM265.5 520
q-40.5 -18 -68.5 -51q-59 -69 -59 -177q0 -107 59 -176q28 -33 68.5 -51t84.5 -18t85 18t69 51q59 69 59 176q0 108 -59 177q-28 33 -69 51t-85 18t-84.5 -18z" />
    <glyph glyph-name="ocircumflex" unicode="&#xf4;" horiz-adv-x="700" 
d="M299 892h103l127 -180h-77l-102 120l-101 -120h-77zM466.5 573.5q55.5 -21.5 95.5 -63.5q41 -43 62 -99.5t21 -118.5t-21 -118t-62 -99q-40 -42 -95.5 -63.5t-116.5 -21.5t-116 21.5t-95 63.5q-41 43 -62 99t-21 118t21 118.5t62 99.5q40 42 95 63.5t116 21.5
t116.5 -21.5zM265.5 520q-40.5 -18 -68.5 -51q-59 -69 -59 -177q0 -107 59 -176q28 -33 68.5 -51t84.5 -18t85 18t69 51q59 69 59 176q0 108 -59 177q-28 33 -69 51t-85 18t-84.5 -18z" />
    <glyph glyph-name="otilde" unicode="&#xf5;" horiz-adv-x="700" 
d="M239 770q-19 -22 -19 -53h-65q0 26 9.5 49.5t27.5 40.5q19 18 44 27t52 9q17 0 31 -8t32 -23q20 -16 33 -23.5t29 -7.5q30 0 49 22t19 53h65q0 -26 -9.5 -50t-27.5 -41q-38 -35 -96 -35q-16 0 -29 7.5t-33 23.5q-18 15 -32 23t-31 8q-30 0 -49 -22zM466.5 573.5
q55.5 -21.5 95.5 -63.5q41 -43 62 -99.5t21 -118.5t-21 -118t-62 -99q-40 -42 -95.5 -63.5t-116.5 -21.5t-116 21.5t-95 63.5q-41 43 -62 99t-21 118t21 118.5t62 99.5q40 42 95 63.5t116 21.5t116.5 -21.5zM265.5 520q-40.5 -18 -68.5 -51q-59 -69 -59 -177q0 -107 59 -176
q28 -33 68.5 -51t84.5 -18t85 18t69 51q59 69 59 176q0 108 -59 177q-28 33 -69 51t-85 18t-84.5 -18z" />
    <glyph glyph-name="odieresis" unicode="&#xf6;" horiz-adv-x="700" 
d="M185 831q16 16 40 16t40 -16t16 -40t-16 -40t-40 -16t-40 16t-16 40t16 40zM436 831q16 16 40 16t40 -16t16 -40t-16 -40t-40 -16t-40 16t-16 40t16 40zM466.5 573.5q55.5 -21.5 95.5 -63.5q41 -43 62 -99.5t21 -118.5t-21 -118t-62 -99q-40 -42 -95.5 -63.5
t-116.5 -21.5t-116 21.5t-95 63.5q-41 43 -62 99t-21 118t21 118.5t62 99.5q40 42 95 63.5t116 21.5t116.5 -21.5zM265.5 520q-40.5 -18 -68.5 -51q-59 -69 -59 -177q0 -107 59 -176q28 -33 68.5 -51t84.5 -18t85 18t69 51q59 69 59 176q0 108 -59 177q-28 33 -69 51t-85 18
t-84.5 -18z" />
    <glyph glyph-name="oe" unicode="&#x153;" horiz-adv-x="1106" 
d="M983 61q-38 -36 -88.5 -53.5t-105.5 -17.5q-56 0 -107 22t-87 63q-19 22 -35 49q-18 -30 -34 -49q-36 -41 -87 -63t-107 -22t-107 22t-87 63q-38 43 -57 99t-19 118t19 118.5t57 99.5q36 41 87 63t107 22t107 -22t87 -63q16 -19 34 -49q16 27 35 49q36 41 87 63t107 22
t107 -22t87 -63q38 -42 56.5 -99t18.5 -119v-28h-456q7 -89 52 -148q24 -32 60 -50.5t75 -18.5t74 14t61 41q22 24 34 50l67 -38q-17 -30 -42 -53zM256.5 519.5q-36.5 -18.5 -60.5 -50.5q-52 -68 -52 -177q0 -108 52 -176q24 -32 60.5 -50.5t75.5 -18.5t75 18.5t60 50.5
q52 68 52 176q0 109 -52 177q-24 32 -60 50.5t-75 18.5t-75.5 -18.5zM924 469q-24 32 -60 50.5t-75 18.5t-75 -18.5t-60 -50.5q-45 -59 -52 -148h374q-7 89 -52 148z" />
    <glyph glyph-name="oslash" unicode="&#xf8;" horiz-adv-x="700" 
d="M529 539l43 46h101l-91 -97q31 -40 47 -90.5t16 -105.5q0 -62 -21 -118t-62 -99q-40 -42 -95.5 -63.5t-116.5 -21.5q-104 0 -179 56l-43 -46h-100l91 97q-32 40 -47.5 90t-15.5 105q0 62 21 118.5t62 99.5q40 42 95 63.5t116 21.5q104 0 179 -56zM265.5 520
q-40.5 -18 -68.5 -51q-59 -69 -59 -177q0 -79 33 -139l312 336q-28 24 -62 36.5t-71 12.5q-44 0 -84.5 -18zM279 59.5q34 -12.5 71 -12.5q44 0 85 18t69 51q59 69 59 176q0 80 -33 140l-313 -336q28 -24 62 -36.5z" />
    <glyph glyph-name="ugrave" unicode="&#xf9;" 
d="M311 712l-149 180h102l123 -180h-76zM425 12.5q-46 -22.5 -97 -22.5q-110 0 -181 61q-34 29 -52.5 70.5t-18.5 86.5v377h82v-377q0 -34 12 -64t35 -52q24 -23 56 -34t67 -11t67 11t56 34q24 22 36 52t12 64v377h81v-585h-81v73q-28 -38 -74 -60.5z" />
    <glyph glyph-name="uacute" unicode="&#xfa;" 
d="M270 712l122 180h102l-149 -180h-75zM425 12.5q-46 -22.5 -97 -22.5q-110 0 -181 61q-34 29 -52.5 70.5t-18.5 86.5v377h82v-377q0 -34 12 -64t35 -52q24 -23 56 -34t67 -11t67 11t56 34q24 22 36 52t12 64v377h81v-585h-81v73q-28 -38 -74 -60.5z" />
    <glyph glyph-name="ucircumflex" unicode="&#xfb;" 
d="M277 892h103l127 -180h-77l-102 120l-102 -120h-76zM425 12.5q-46 -22.5 -97 -22.5q-110 0 -181 61q-34 29 -52.5 70.5t-18.5 86.5v377h82v-377q0 -34 12 -64t35 -52q24 -23 56 -34t67 -11t67 11t56 34q24 22 36 52t12 64v377h81v-585h-81v73q-28 -38 -74 -60.5z" />
    <glyph glyph-name="udieresis" unicode="&#xfc;" 
d="M163 831q16 16 40 16t40 -16t16 -40t-16 -40t-40 -16t-40 16t-16 40t16 40zM414 831q16 16 40 16t40 -16t16 -40t-16 -40t-40 -16t-40 16t-16 40t16 40zM425 12.5q-46 -22.5 -97 -22.5q-110 0 -181 61q-34 29 -52.5 70.5t-18.5 86.5v377h82v-377q0 -34 12 -64t35 -52
q24 -23 56 -34t67 -11t67 11t56 34q24 22 36 52t12 64v377h81v-585h-81v73q-28 -38 -74 -60.5z" />
    <glyph glyph-name="yacute" unicode="&#xfd;" horiz-adv-x="588" 
d="M235 712l123 180h102l-149 -180h-76zM514 585h66l-390 -885h-66l137 310l-253 575h89l209 -474z" />
    <glyph glyph-name="thorn" unicode="&#xfe;" horiz-adv-x="714" 
d="M251 25.5q-56 35.5 -85 91.5v-417h-82v1200h82v-432q29 56 85 91.5t120 35.5q60 0 114 -22t93 -63q40 -42 60.5 -99t20.5 -119t-20.5 -118.5t-60.5 -98.5q-39 -41 -93 -63t-114 -22q-64 0 -120 35.5zM289.5 520q-38.5 -18 -66.5 -51q-57 -68 -57 -177q0 -108 57 -176
q28 -33 66.5 -51t81.5 -18t82 18t67 51q57 68 57 176q0 109 -57 177q-28 33 -67 51t-82 18t-81.5 -18z" />
    <glyph glyph-name="germandbls" unicode="&#xdf;" horiz-adv-x="693" 
d="M433.5 574.5q27.5 50.5 27.5 113.5q0 74 -41 119q-20 22 -48 34t-59 12q-30 0 -58 -12t-48 -34q-41 -45 -41 -119v-688h-82v688q0 46 16 87.5t48 72.5t75 46.5t90 15.5t90.5 -15.5t75.5 -46.5t48 -72.5t16 -87.5q0 -56 -21 -106.5t-59 -78.5q49 -19 84 -54
q37 -37 56.5 -87t19.5 -105q0 -117 -60 -192q-28 -35 -68 -55t-85 -20q-48 0 -91.5 19.5t-74.5 55.5q-12 14 -24 32l65 39q18 -39 51 -64t74 -25q28 0 53 16t41 43q37 59 37 151q0 93 -52 151q-25 28 -61 43t-75 15h-59v58h59q53 0 80.5 50.5z" />
    </font>
</defs>
</svg>
